StackSansText.glyphspackage
{
color = 6;
glyphname = exclam;
kernLeft = KO_exclam;
kernRight = KO_exclam;
layers = (
{
layerId = "70D15AE9-D38C-43AF-B37D-5B18830B62EE";
shapes = (
{
closed = 1;
nodes = (
(68,220,l),
(211,220,l),
(211,700,l),
(68,700,l)
);
},
{
closed = 1;
nodes = (
(63,0,l),
(216,0,l),
(216,153,l),
(63,153,l)
);
}
);
width = 279;
},
{
layerId = "B0101270-E9E4-4119-BDB6-6DA172BA76B6";
shapes = (
{
closed = 1;
nodes = (
(74,190,l),
(152,190,l),
(152,700,l),
(74,700,l)
);
},
{
closed = 1;
nodes = (
(68,0,l),
(157,0,l),
(157,93,l),
(68,93,l)
);
}
);
width = 225;
}
);
metricLeft = "=l";
metricRight = "=l";
unicode = 33;
}
{
color = 6;
glyphname = numbersign;
kernLeft = KO_numbersign;
kernRight = KO_numbersign;
layers = (
{
layerId = "70D15AE9-D38C-43AF-B37D-5B18830B62EE";
shapes = (
{
closed = 1;
nodes = (
(89,434,l),
(651,434,l),
(651,560,l),
(89,560,l)
);
},
{
closed = 1;
nodes = (
(35,135,l),
(597,135,l),
(597,261,l),
(35,261,l)
);
},
{
closed = 1;
nodes = (
(84,0,l),
(221,0,l),
(351,700,l),
(214,700,l)
);
},
{
closed = 1;
nodes = (
(335,0,l),
(472,0,l),
(602,700,l),
(465,700,l)
);
}
);
width = 686;
},
{
layerId = "B0101270-E9E4-4119-BDB6-6DA172BA76B6";
shapes = (
{
closed = 1;
nodes = (
(94,464,l),
(656,464,l),
(656,530,l),
(94,530,l)
);
},
{
closed = 1;
nodes = (
(40,165,l),
(602,165,l),
(602,231,l),
(40,231,l)
);
},
{
closed = 1;
nodes = (
(119,0,l),
(191,0,l),
(321,700,l),
(249,700,l)
);
},
{
closed = 1;
nodes = (
(375,0,l),
(447,0,l),
(577,700,l),
(505,700,l)
);
}
);
width = 696;
}
);
unicode = 35;
}
{
color = 6;
glyphname = percent;
kernLeft = KO_percent;
kernRight = KO_percent;
layers = (
{
layerId = "70D15AE9-D38C-43AF-B37D-5B18830B62EE";
shapes = (
{
closed = 1;
nodes = (
(226,0,l),
(378,0,l),
(768,700,l),
(616,700,l)
);
},
{
closed = 1;
nodes = (
(349,277,o),
(405,375,o),
(405,497,cs),
(405,618,o),
(349,716,o),
(228,716,cs),
(106,716,o),
(50,618,o),
(50,497,cs),
(50,375,o),
(106,277,o),
(228,277,cs)
);
},
{
closed = 1;
nodes = (
(192,402,o),
(174,439,o),
(174,497,cs),
(174,554,o),
(192,591,o),
(228,591,cs),
(263,591,o),
(281,554,o),
(281,497,cs),
(281,439,o),
(263,402,o),
(228,402,cs)
);
},
{
closed = 1;
nodes = (
(884,-16,o),
(940,82,o),
(940,204,cs),
(940,325,o),
(884,423,o),
(763,423,cs),
(641,423,o),
(585,325,o),
(585,204,cs),
(585,82,o),
(641,-16,o),
(763,-16,cs)
);
},
{
closed = 1;
nodes = (
(727,109,o),
(709,146,o),
(709,204,cs),
(709,261,o),
(727,298,o),
(763,298,cs),
(798,298,o),
(816,261,o),
(816,204,cs),
(816,146,o),
(798,109,o),
(763,109,cs)
);
}
);
width = 990;
},
{
layerId = "B0101270-E9E4-4119-BDB6-6DA172BA76B6";
shapes = (
{
closed = 1;
nodes = (
(239,0,l),
(323,0,l),
(713,700,l),
(629,700,l)
);
},
{
closed = 1;
nodes = (
(349,277,o),
(405,375,o),
(405,497,cs),
(405,618,o),
(349,716,o),
(228,716,cs),
(106,716,o),
(50,618,o),
(50,497,cs),
(50,375,o),
(106,277,o),
(228,277,cs)
);
},
{
closed = 1;
nodes = (
(163,342,o),
(125,409,o),
(125,497,cs),
(125,584,o),
(163,651,o),
(228,651,cs),
(292,651,o),
(330,584,o),
(330,497,cs),
(330,409,o),
(292,342,o),
(228,342,cs)
);
},
{
closed = 1;
nodes = (
(844,-16,o),
(900,82,o),
(900,204,cs),
(900,325,o),
(844,423,o),
(723,423,cs),
(601,423,o),
(545,325,o),
(545,204,cs),
(545,82,o),
(601,-16,o),
(723,-16,cs)
);
},
{
closed = 1;
nodes = (
(658,49,o),
(620,116,o),
(620,204,cs),
(620,291,o),
(658,358,o),
(723,358,cs),
(787,358,o),
(825,291,o),
(825,204,cs),
(825,116,o),
(787,49,o),
(723,49,cs)
);
}
);
width = 950;
}
);
unicode = 37;
}
{
color = 6;
glyphname = parenright;
kernLeft = KO_parenright;
kernRight = KO_parenright;
layers = (
{
layerId = "70D15AE9-D38C-43AF-B37D-5B18830B62EE";
shapes = (
{
closed = 1;
nodes = (
(35,716,l),
(95,568,o),
(125,440,o),
(125,272,c),
(125,104,o),
(95,-24,o),
(35,-172,c),
(127,-172,l),
(197,-44,o),
(251,84,o),
(251,272,cs),
(251,460,o),
(197,588,o),
(127,716,c)
);
}
);
width = 294;
},
{
layerId = "B0101270-E9E4-4119-BDB6-6DA172BA76B6";
shapes = (
{
closed = 1;
nodes = (
(40,716,l),
(112,568,o),
(151,440,o),
(151,272,c),
(151,104,o),
(112,-24,o),
(40,-172,c),
(101,-172,l),
(171,-44,o),
(225,84,o),
(225,272,cs),
(225,460,o),
(171,588,o),
(101,716,c)
);
}
);
width = 273;
},
{
associatedMasterId = "B0101270-E9E4-4119-BDB6-6DA172BA76B6";
layerId = "417ED089-94EA-4A7D-B2B4-77B804FF0EB4";
name = "2 Sep 25 at 13:54";
shapes = (
{
closed = 1;
nodes = (
(40,716,l),
(114,568,o),
(154,440,o),
(154,272,c),
(154,104,o),
(114,-24,o),
(40,-172,c),
(96,-172,l),
(166,-44,o),
(220,84,o),
(220,272,cs),
(220,460,o),
(166,588,o),
(96,716,c)
);
}
);
width = 268;
},
{
associatedMasterId = "70D15AE9-D38C-43AF-B37D-5B18830B62EE";
layerId = "F4796994-E38E-48D4-8F28-736808522F99";
name = "2 Sep 25 at 13:54";
shapes = (
{
closed = 1;
nodes = (
(35,716,l),
(95,568,o),
(125,440,o),
(125,272,c),
(125,104,o),
(95,-24,o),
(35,-172,c),
(127,-172,l),
(197,-44,o),
(251,84,o),
(251,272,cs),
(251,460,o),
(197,588,o),
(127,716,c)
);
}
);
width = 294;
}
);
metricRight = "=O";
unicode = 41;
}
{
color = 6;
glyphname = comma;
kernLeft = KO_comma;
kernRight = KO_period;
layers = (
{
layerId = "70D15AE9-D38C-43AF-B37D-5B18830B62EE";
shapes = (
{
closed = 1;
nodes = (
(45,0,l),
(123,0,l),
(123,-30,o),
(113,-48,o),
(80,-48,c),
(80,-114,l),
(152,-114,o),
(198,-76,o),
(198,0,cs),
(198,153,l),
(45,153,l)
);
}
);
width = 243;
},
{
layerId = "B0101270-E9E4-4119-BDB6-6DA172BA76B6";
shapes = (
{
closed = 1;
nodes = (
(50,0,l),
(99,0,l),
(99,-19,o),
(92,-30,o),
(72,-30,c),
(72,-71,l),
(116,-71,o),
(145,-47,o),
(145,0,cs),
(145,93,l),
(50,93,l)
);
}
);
width = 195;
}
);
unicode = 44;
userData = {
KernOnSpecialSpacing = {
L = period;
R = period;
};
};
}
{
color = 6;
glyphname = hyphen;
kernLeft = KO_hyphen;
kernRight = KO_hyphen;
layers = (
{
layerId = "70D15AE9-D38C-43AF-B37D-5B18830B62EE";
shapes = (
{
closed = 1;
nodes = (
(56,259,l),
(371,259,l),
(371,381,l),
(56,381,l)
);
}
);
width = 426;
},
{
layerId = "B0101270-E9E4-4119-BDB6-6DA172BA76B6";
shapes = (
{
closed = 1;
nodes = (
(61,289,l),
(376,289,l),
(376,351,l),
(61,351,l)
);
}
);
width = 436;
}
);
unicode = 45;
userData = {
KernOnName = hyphen;
KernOnSpecialSpacing = {
L = hyphen;
R = hyphen;
};
};
}
{
color = 6;
glyphname = period;
kernLeft = KO_comma;
kernRight = KO_period;
layers = (
{
layerId = "70D15AE9-D38C-43AF-B37D-5B18830B62EE";
shapes = (
{
closed = 1;
nodes = (
(45,0,l),
(198,0,l),
(198,153,l),
(45,153,l)
);
}
);
width = 243;
},
{
layerId = "B0101270-E9E4-4119-BDB6-6DA172BA76B6";
shapes = (
{
closed = 1;
nodes = (
(50,0,l),
(139,0,l),
(139,93,l),
(50,93,l)
);
}
);
width = 189;
}
);
unicode = 46;
userData = {
KernOnName = period;
KernOnSpecialSpacing = {
L = period;
R = period;
};
};
}
{
color = 6;
glyphname = slash;
kernLeft = KO_slash;
kernRight = KO_slash;
layers = (
{
layerId = "70D15AE9-D38C-43AF-B37D-5B18830B62EE";
shapes = (
{
closed = 1;
nodes = (
(35,0,l),
(177,0,l),
(377,700,l),
(235,700,l)
);
}
);
width = 412;
},
{
layerId = "B0101270-E9E4-4119-BDB6-6DA172BA76B6";
shapes = (
{
closed = 1;
nodes = (
(40,0,l),
(117,0,l),
(317,700,l),
(240,700,l)
);
}
);
width = 357;
}
);
unicode = 47;
}
{
color = 6;
glyphname = zero;
layers = (
{
layerId = "70D15AE9-D38C-43AF-B37D-5B18830B62EE";
shapes = (
{
closed = 1;
nodes = (
(541,-16,o),
(634,148,o),
(634,351,cs),
(634,552,o),
(541,716,o),
(339,716,cs),
(136,716,o),
(43,552,o),
(43,351,cs),
(43,148,o),
(136,-16,o),
(339,-16,cs)
);
},
{
closed = 1;
nodes = (
(232,116,o),
(194,231,o),
(194,351,cs),
(194,469,o),
(232,584,o),
(339,584,cs),
(445,584,o),
(483,469,o),
(483,351,cs),
(483,231,o),
(445,116,o),
(339,116,cs)
);
}
);
width = 677;
},
{
layerId = "B0101270-E9E4-4119-BDB6-6DA172BA76B6";
shapes = (
{
closed = 1;
nodes = (
(546,-16,o),
(639,148,o),
(639,351,cs),
(639,552,o),
(546,716,o),
(344,716,cs),
(141,716,o),
(48,552,o),
(48,351,cs),
(48,148,o),
(141,-16,o),
(344,-16,cs)
);
},
{
closed = 1;
nodes = (
(207,56,o),
(126,181,o),
(126,351,cs),
(126,519,o),
(207,644,o),
(344,644,cs),
(480,644,o),
(561,519,o),
(561,351,cs),
(561,181,o),
(480,56,o),
(344,56,cs)
);
}
);
width = 687;
}
);
metricLeft = "=O";
metricRight = "=O";
unicode = 48;
userData = {
KernOnSpecialSpacing = {
L = NoKerning;
R = NoKerning;
};
};
}
{
color = 6;
glyphname = three;
layers = (
{
layerId = "70D15AE9-D38C-43AF-B37D-5B18830B62EE";
shapes = (
{
closed = 1;
nodes = (
(258,290,l),
(302,290,ls),
(404,290,o),
(441,257,o),
(441,200,cs),
(441,152,o),
(406,116,o),
(328,116,cs),
(249,116,o),
(203,156,o),
(197,222,c),
(45,222,l),
(45,81,o),
(173,-16,o),
(323,-16,cs),
(493,-16,o),
(592,78,o),
(592,190,cs),
(592,279,o),
(539,359,o),
(399,367,c),
(398,336,l),
(534,345,o),
(587,421,o),
(587,510,cs),
(587,622,o),
(484,716,o),
(324,716,cs),
(174,716,o),
(45,619,o),
(45,478,c),
(197,478,l),
(203,544,o),
(250,584,o),
(329,584,cs),
(404,584,o),
(436,551,o),
(436,510,cs),
(436,453,o),
(404,420,o),
(305,420,cs),
(258,420,l)
);
}
);
width = 635;
},
{
layerId = "B0101270-E9E4-4119-BDB6-6DA172BA76B6";
shapes = (
{
closed = 1;
nodes = (
(253,320,l),
(326,320,ls),
(438,320,o),
(509,281,o),
(509,200,cs),
(509,122,o),
(441,56,o),
(323,56,cs),
(214,56,o),
(133,126,o),
(127,222,c),
(50,222,l),
(50,81,o),
(168,-16,o),
(323,-16,cs),
(488,-16,o),
(587,78,o),
(587,198,cs),
(587,308,o),
(499,384,o),
(329,370,c),
(329,336,l),
(501,332,o),
(582,421,o),
(582,510,cs),
(582,622,o),
(494,716,o),
(322,716,cs),
(179,716,o),
(50,619,o),
(50,478,c),
(127,478,l),
(133,580,o),
(215,644,o),
(324,644,cs),
(439,644,o),
(504,581,o),
(504,510,cs),
(504,427,o),
(449,390,o),
(323,390,cs),
(253,390,l)
);
}
);
width = 635;
}
);
metricRight = "=O";
unicode = 51;
userData = {
KernOnSpecialSpacing = {
L = NoKerning;
R = NoKerning;
};
};
}
{
color = 6;
glyphname = four;
layers = (
{
layerId = "70D15AE9-D38C-43AF-B37D-5B18830B62EE";
shapes = (
{
closed = 1;
nodes = (
(347,0,l),
(490,0,l),
(490,700,l),
(347,700,l)
);
},
{
closed = 1;
nodes = (
(45,156,l),
(586,156,l),
(586,282,l),
(45,282,l)
);
},
{
closed = 1;
nodes = (
(45,282,l),
(45,156,l),
(113,156,l),
(468,700,l),
(318,700,l)
);
}
);
width = 611;
},
{
layerId = "B0101270-E9E4-4119-BDB6-6DA172BA76B6";
shapes = (
{
closed = 1;
nodes = (
(372,0,l),
(445,0,l),
(445,700,l),
(372,700,l)
);
},
{
closed = 1;
nodes = (
(80,176,l),
(571,176,l),
(571,242,l),
(80,242,l)
);
},
{
closed = 1;
nodes = (
(35,230,l),
(35,176,l),
(82,176,l),
(417,700,l),
(342,700,l)
);
}
);
width = 611;
}
);
unicode = 52;
userData = {
KernOnSpecialSpacing = {
L = NoKerning;
R = NoKerning;
};
};
}
{
color = 6;
glyphname = seven;
layers = (
{
layerId = "70D15AE9-D38C-43AF-B37D-5B18830B62EE";
shapes = (
{
closed = 1;
nodes = (
(328,0,l),
(328,314,o),
(402,489,o),
(520,601,c),
(520,700,l),
(416,700,l),
(261,560,o),
(176,303,o),
(176,0,c)
);
},
{
closed = 1;
nodes = (
(35,574,l),
(482,574,l),
(482,700,l),
(35,700,l)
);
}
);
width = 555;
},
{
layerId = "B0101270-E9E4-4119-BDB6-6DA172BA76B6";
shapes = (
{
closed = 1;
nodes = (
(293,0,l),
(293,314,o),
(387,519,o),
(505,631,c),
(505,700,l),
(479,700,l),
(324,560,o),
(216,303,o),
(216,0,c)
);
},
{
closed = 1;
nodes = (
(40,634,l),
(487,634,l),
(487,700,l),
(40,700,l)
);
}
);
width = 545;
}
);
unicode = 55;
userData = {
KernOnSpecialSpacing = {
L = NoKerning;
R = NoKerning;
};
};
}
{
color = 6;
glyphname = eight;
layers = (
{
layerId = "70D15AE9-D38C-43AF-B37D-5B18830B62EE";
shapes = (
{
closed = 1;
nodes = (
(151,716,o),
(48,622,o),
(48,510,cs),
(48,441,o),
(80,380,o),
(156,352,c),
(75,324,o),
(43,260,o),
(43,190,cs),
(43,78,o),
(141,-16,o),
(310,-16,cs),
(479,-16,o),
(577,78,o),
(577,190,cs),
(577,260,o),
(545,324,o),
(464,352,c),
(540,380,o),
(572,441,o),
(572,510,cs),
(572,622,o),
(469,716,o),
(310,716,cs)
);
},
{
closed = 1;
nodes = (
(194,258,o),
(225,297,o),
(310,297,cs),
(395,297,o),
(426,258,o),
(426,205,cs),
(426,162,o),
(399,116,o),
(310,116,cs),
(221,116,o),
(194,163,o),
(194,205,cs)
);
},
{
closed = 1;
nodes = (
(199,549,o),
(240,584,o),
(310,584,c),
(380,584,o),
(421,549,o),
(421,505,cs),
(421,452,o),
(387,413,o),
(310,413,cs),
(232,413,o),
(199,452,o),
(199,505,cs)
);
}
);
width = 620;
},
{
layerId = "B0101270-E9E4-4119-BDB6-6DA172BA76B6";
shapes = (
{
closed = 1;
nodes = (
(156,716,o),
(53,622,o),
(53,510,cs),
(53,441,o),
(85,380,o),
(161,352,c),
(80,324,o),
(48,260,o),
(48,190,cs),
(48,78,o),
(146,-16,o),
(315,-16,cs),
(484,-16,o),
(582,78,o),
(582,190,cs),
(582,260,o),
(550,324,o),
(469,352,c),
(545,380,o),
(577,441,o),
(577,510,cs),
(577,622,o),
(474,716,o),
(315,716,cs)
);
},
{
closed = 1;
nodes = (
(126,278,o),
(190,323,o),
(315,323,cs),
(440,323,o),
(494,278,o),
(494,195,cs),
(494,110,o),
(435,56,o),
(315,56,cs),
(195,56,o),
(126,110,o),
(126,195,cs)
);
},
{
closed = 1;
nodes = (
(131,589,o),
(205,644,o),
(315,644,c),
(425,644,o),
(499,589,o),
(499,515,cs),
(499,432,o),
(432,387,o),
(315,387,cs),
(197,387,o),
(131,432,o),
(131,515,cs)
);
}
);
width = 630;
}
);
metricRight = "=O";
unicode = 56;
userData = {
KernOnSpecialSpacing = {
L = NoKerning;
R = NoKerning;
};
};
}
{
color = 6;
glyphname = semicolon;
kernLeft = KO_colon;
kernRight = KO_colon;
layers = (
{
layerId = "70D15AE9-D38C-43AF-B37D-5B18830B62EE";
shapes = (
{
closed = 1;
nodes = (
(157,-114,o),
(203,-76,o),
(203,0,cs),
(203,153,l),
(50,153,l),
(50,0,l),
(128,0,l),
(128,-30,o),
(118,-48,o),
(85,-48,c),
(85,-114,l)
);
},
{
closed = 1;
nodes = (
(203,407,l),
(203,560,l),
(50,560,l),
(50,407,l)
);
}
);
width = 253;
},
{
layerId = "B0101270-E9E4-4119-BDB6-6DA172BA76B6";
shapes = (
{
closed = 1;
nodes = (
(121,-71,o),
(150,-47,o),
(150,0,cs),
(150,93,l),
(55,93,l),
(55,0,l),
(104,0,l),
(104,-19,o),
(97,-30,o),
(77,-30,c),
(77,-71,l)
);
},
{
closed = 1;
nodes = (
(144,467,l),
(144,560,l),
(55,560,l),
(55,467,l)
);
}
);
width = 205;
}
);
metricRight = "=colon";
unicode = 59;
}
{
color = 6;
glyphname = greater;
kernLeft = KO_greater;
kernRight = KO_greater;
layers = (
{
layerId = "70D15AE9-D38C-43AF-B37D-5B18830B62EE";
shapes = (
{
closed = 1;
nodes = (
(615,274,l),
(615,467,l),
(55,637,l),
(55,494,l),
(522,369,l),
(522,373,l),
(55,247,l),
(55,104,l)
);
}
);
width = 665;
},
{
layerId = "B0101270-E9E4-4119-BDB6-6DA172BA76B6";
shapes = (
{
closed = 1;
nodes = (
(620,324,l),
(620,417,l),
(60,597,l),
(60,523,l),
(565,368,l),
(565,374,l),
(60,218,l),
(60,144,l)
);
}
);
width = 675;
}
);
unicode = 62;
}
{
color = 6;
glyphname = at;
kernLeft = KO_at;
kernRight = KO_at;
layers = (
{
layerId = "70D15AE9-D38C-43AF-B37D-5B18830B62EE";
shapes = (
{
closed = 1;
nodes = (
(574,-87,o),
(672,-27,o),
(696,3,c),
(624,81,l),
(557,36,o),
(487,25,o),
(436,25,cs),
(267,25,o),
(165,157,o),
(165,308,cs),
(165,462,o),
(278,583,o),
(447,583,cs),
(625,583,o),
(729,462,o),
(729,313,cs),
(729,260,o),
(706,227,o),
(667,227,cs),
(638,227,o),
(627,245,o),
(627,275,cs),
(627,486,l),
(520,486,l),
(520,268,ls),
(520,175,o),
(563,117,o),
(663,117,cs),
(777,117,o),
(850,193,o),
(850,325,cs),
(850,510,o),
(696,700,o),
(447,700,cs),
(214,700,o),
(43,516,o),
(43,308,cs),
(43,89,o),
(199,-87,o),
(438,-87,cs)
);
},
{
closed = 1;
nodes = (
(457,117,o),
(513,141,o),
(539,203,c),
(529,439,l),
(507,476,o),
(455,498,o),
(406,498,cs),
(315,498,o),
(239,422,o),
(239,307,cs),
(239,189,o),
(315,117,o),
(405,117,cs)
);
},
{
closed = 1;
nodes = (
(400,227,o),
(366,264,o),
(366,311,cs),
(366,360,o),
(400,395,o),
(444,395,cs),
(491,395,o),
(520,355,o),
(520,311,cs),
(520,267,o),
(491,227,o),
(444,227,cs)
);
}
);
width = 893;
},
{
hints = (
{
horizontal = 1;
place = (145,21);
target = up;
type = BottomGhost;
}
);
layerId = "B0101270-E9E4-4119-BDB6-6DA172BA76B6";
shapes = (
{
closed = 1;
nodes = (
(523,-64,o),
(602,-34,o),
(663,16,c),
(618,67,l),
(563,31,o),
(502,4,o),
(426,4,cs),
(243,4,o),
(128,145,o),
(128,310,cs),
(128,474,o),
(243,620,o),
(426,620,cs),
(608,620,o),
(729,474,o),
(729,310,cs),
(729,200,o),
(687,186,o),
(655,186,cs),
(613,186,o),
(590,211,o),
(590,270,cs),
(590,493,l),
(518,493,l),
(518,267,ls),
(518,160,o),
(582,118,o),
(652,118,cs),
(735,118,o),
(805,180,o),
(805,310,cs),
(805,518,o),
(655,688,o),
(426,688,cs),
(195,688,o),
(48,518,o),
(48,310,cs),
(48,100,o),
(195,-64,o),
(426,-64,cs)
);
},
{
closed = 1;
nodes = (
(468,118,o),
(524,166,o),
(534,203,c),
(522,432,l),
(507,473,o),
(461,505,o),
(397,505,cs),
(300,505,o),
(222,425,o),
(222,310,cs),
(222,197,o),
(300,118,o),
(398,118,cs)
);
},
{
closed = 1;
nodes = (
(338,183,o),
(298,236,o),
(298,310,cs),
(298,385,o),
(338,438,o),
(410,438,cs),
(475,438,o),
(518,389,o),
(518,310,cs),
(518,233,o),
(475,183,o),
(410,183,cs)
);
}
);
width = 853;
},
{
associatedMasterId = "B0101270-E9E4-4119-BDB6-6DA172BA76B6";
hints = (
{
horizontal = 1;
origin = (1,12);
target = up;
type = BottomGhost;
}
);
layerId = "9DB44D59-9E92-4B22-A199-0311F79F6ADC";
name = "3 Sep 25 at 14:33";
shapes = (
{
closed = 1;
nodes = (
(531,-16,o),
(627,37,o),
(688,120,c),
(586,120,l),
(541,77,o),
(480,51,o),
(404,51,cs),
(228,51,o),
(121,191,o),
(121,351,cs),
(121,509,o),
(228,649,o),
(404,649,cs),
(580,649,o),
(686,509,o),
(686,351,cs),
(686,244,o),
(657,215,o),
(626,215,cs),
(595,215,o),
(574,240,o),
(574,287,cs),
(574,548,l),
(503,548,l),
(503,287,ls),
(503,195,o),
(550,148,o),
(623,148,cs),
(715,148,o),
(759,225,o),
(759,351,cs),
(759,552,o),
(626,716,o),
(404,716,cs),
(181,716,o),
(48,552,o),
(48,351,cs),
(48,148,o),
(181,-16,o),
(404,-16,cs)
);
},
{
closed = 1;
nodes = (
(443,145,o),
(502,196,o),
(516,237,c),
(503,481,l),
(488,525,o),
(441,559,o),
(373,559,cs),
(269,559,o),
(197,473,o),
(197,351,cs),
(197,230,o),
(269,145,o),
(373,145,cs)
);
},
{
closed = 1;
nodes = (
(317,207,o),
(270,261,o),
(270,351,cs),
(270,442,o),
(317,496,o),
(382,496,cs),
(457,496,o),
(503,445,o),
(503,351,cs),
(503,258,o),
(457,207,o),
(382,207,cs)
);
}
);
width = 807;
},
{
associatedMasterId = "70D15AE9-D38C-43AF-B37D-5B18830B62EE";
layerId = "C1A11B24-12D4-4E2A-9843-D077C29C262F";
name = "3 Sep 25 at 14:34";
shapes = (
{
closed = 1;
nodes = (
(537,-16,o),
(646,36,o),
(697,120,c),
(528,120,l),
(499,96,o),
(456,86,o),
(409,86,cs),
(252,86,o),
(164,211,o),
(164,351,cs),
(164,489,o),
(252,614,o),
(409,614,cs),
(575,614,o),
(653,489,o),
(653,351,cs),
(653,305,o),
(650,272,o),
(621,272,cs),
(600,272,o),
(590,289,o),
(590,314,cs),
(590,517,l),
(490,517,l),
(490,314,ls),
(490,228,o),
(518,178,o),
(621,178,cs),
(718,178,o),
(774,244,o),
(774,351,cs),
(774,552,o),
(641,716,o),
(409,716,cs),
(176,716,o),
(43,552,o),
(43,351,cs),
(43,148,o),
(176,-16,o),
(409,-16,cs)
);
},
{
closed = 1;
nodes = (
(432,174,o),
(485,207,o),
(499,254,c),
(490,473,l),
(466,508,o),
(430,528,o),
(378,528,cs),
(271,528,o),
(201,457,o),
(201,350,cs),
(201,244,o),
(271,174,o),
(378,174,cs)
);
},
{
closed = 1;
nodes = (
(334,263,o),
(303,300,o),
(303,350,cs),
(303,401,o),
(334,438,o),
(395,438,cs),
(460,438,o),
(490,401,o),
(490,350,cs),
(490,300,o),
(460,263,o),
(395,263,cs)
);
}
);
width = 817;
}
);
metricRight = "=O";
unicode = 64;
}
{
color = 6;
glyphname = B;
kernLeft = KO_H;
kernRight = KO_B;
layers = (
{
anchors = (
{
name = bottom;
pos = (322,0);
},
{
name = center;
pos = (174,175);
},
{
name = top;
pos = (322,700);
}
);
layerId = "70D15AE9-D38C-43AF-B37D-5B18830B62EE";
shapes = (
{
closed = 1;
nodes = (
(67,0,l),
(212,0,l),
(212,700,l),
(67,700,l)
);
},
{
closed = 1;
nodes = (
(122,290,l),
(319,290,ls),
(385,290,o),
(443,281,o),
(443,211,cs),
(443,141,o),
(385,126,o),
(319,126,cs),
(122,126,l),
(122,0,l),
(319,0,ls),
(471,0,o),
(594,50,o),
(594,211,cs),
(594,302,o),
(524,371,o),
(434,375,c),
(434,342,l),
(527,347,o),
(555,430,o),
(555,495,cs),
(555,656,o),
(432,700,o),
(280,700,cs),
(122,700,l),
(122,574,l),
(280,574,ls),
(346,574,o),
(404,565,o),
(404,495,cs),
(404,425,o),
(346,416,o),
(280,416,cs),
(122,416,l)
);
}
);
width = 644;
},
{
anchors = (
{
name = bottom;
pos = (325,0);
},
{
name = center;
pos = (177,175);
},
{
name = top;
pos = (325,700);
}
);
layerId = "B0101270-E9E4-4119-BDB6-6DA172BA76B6";
shapes = (
{
closed = 1;
nodes = (
(72,0,l),
(147,0,l),
(147,700,l),
(72,700,l)
);
},
{
closed = 1;
nodes = (
(127,320,l),
(322,320,ls),
(453,320,o),
(516,276,o),
(516,191,cs),
(516,95,o),
(453,66,o),
(319,66,cs),
(127,66,l),
(127,0,l),
(319,0,ls),
(471,0,o),
(594,40,o),
(594,191,cs),
(594,303,o),
(493,366,o),
(389,366,c),
(389,348,l),
(493,348,o),
(560,429,o),
(560,505,cs),
(560,655,o),
(437,700,o),
(285,700,cs),
(127,700,l),
(127,634,l),
(285,634,ls),
(432,634,o),
(482,597,o),
(482,509,cs),
(482,419,o),
(421,386,o),
(290,386,cs),
(127,386,l)
);
}
);
width = 639;
}
);
unicode = 66;
userData = {
KernOnName = B;
};
}
{
color = 6;
glyphname = C;
kernLeft = KO_O;
kernRight = KO_C;
layers = (
{
anchors = (
{
name = bottom;
pos = (382,0);
},
{
name = top;
pos = (385,700);
}
);
layerId = "70D15AE9-D38C-43AF-B37D-5B18830B62EE";
shapes = (
{
closed = 1;
nodes = (
(557,285,l),
(549,182,o),
(500,116,o),
(389,116,cs),
(252,116,o),
(194,231,o),
(194,351,cs),
(194,469,o),
(252,584,o),
(389,584,cs),
(489,584,o),
(537,531,o),
(551,441,c),
(705,441,l),
(684,609,o),
(577,716,o),
(389,716,cs),
(166,716,o),
(43,552,o),
(43,351,cs),
(43,148,o),
(166,-16,o),
(389,-16,cs),
(586,-16,o),
(695,104,o),
(709,285,c)
);
}
);
width = 752;
},
{
anchors = (
{
name = bottom;
pos = (386,0);
},
{
name = top;
pos = (391,700);
}
);
layerId = "B0101270-E9E4-4119-BDB6-6DA172BA76B6";
shapes = (
{
closed = 1;
nodes = (
(637,285,l),
(629,182,o),
(575,56,o),
(394,56,cs),
(217,56,o),
(126,191,o),
(126,351,cs),
(126,509,o),
(217,644,o),
(394,644,cs),
(564,644,o),
(617,531,o),
(631,441,c),
(710,441,l),
(689,609,o),
(582,716,o),
(394,716,cs),
(171,716,o),
(48,552,o),
(48,351,cs),
(48,148,o),
(171,-16,o),
(394,-16,cs),
(591,-16,o),
(700,104,o),
(714,285,c)
);
}
);
width = 762;
}
);
metricLeft = "=O";
metricRight = "=O";
unicode = 67;
userData = {
KernOnName = C;
};
}
{
color = 6;
glyphname = E;
kernLeft = KO_H;
kernRight = KO_E;
layers = (
{
anchors = (
{
name = bottom;
pos = (279,0);
},
{
name = ogonek;
pos = (558,0);
},
{
name = top;
pos = (309,700);
},
{
name = topleft;
pos = (45,700);
}
);
layerId = "70D15AE9-D38C-43AF-B37D-5B18830B62EE";
shapes = (
{
closed = 1;
nodes = (
(558,0,l),
(558,126,l),
(212,126,l),
(212,289,l),
(514,289,l),
(514,415,l),
(212,415,l),
(212,574,l),
(554,574,l),
(554,700,l),
(67,700,l),
(67,0,l)
);
}
);
width = 615;
},
{
anchors = (
{
name = bottom;
pos = (278,0);
},
{
name = ogonek;
pos = (553,0);
},
{
name = top;
pos = (308,700);
},
{
name = topleft;
pos = (50,700);
}
);
layerId = "B0101270-E9E4-4119-BDB6-6DA172BA76B6";
shapes = (
{
closed = 1;
nodes = (
(553,0,l),
(553,68,l),
(147,68,l),
(147,318,l),
(509,318,l),
(509,386,l),
(147,386,l),
(147,632,l),
(549,632,l),
(549,700,l),
(72,700,l),
(72,0,l)
);
}
);
width = 615;
}
);
metricLeft = "=H";
metricRight = "=H-10";
unicode = 69;
userData = {
KernOnName = E;
};
}
{
color = 6;
glyphname = F;
kernLeft = KO_H;
kernRight = KO_F;
layers = (
{
anchors = (
{
name = bottom;
pos = (301,0);
},
{
name = top;
pos = (301,700);
}
);
layerId = "70D15AE9-D38C-43AF-B37D-5B18830B62EE";
shapes = (
{
closed = 1;
nodes = (
(67,0,l),
(212,0,l),
(212,700,l),
(67,700,l)
);
},
{
closed = 1;
nodes = (
(212,269,l),
(504,269,l),
(504,395,l),
(212,395,l)
);
},
{
closed = 1;
nodes = (
(122,574,l),
(544,574,l),
(544,700,l),
(122,700,l)
);
}
);
width = 601;
},
{
anchors = (
{
name = bottom;
pos = (306,0);
},
{
name = top;
pos = (306,700);
}
);
layerId = "B0101270-E9E4-4119-BDB6-6DA172BA76B6";
shapes = (
{
closed = 1;
nodes = (
(72,0,l),
(147,0,l),
(147,700,l),
(72,700,l)
);
},
{
closed = 1;
nodes = (
(98,298,l),
(509,298,l),
(509,366,l),
(98,366,l)
);
},
{
closed = 1;
nodes = (
(127,632,l),
(549,632,l),
(549,700,l),
(127,700,l)
);
}
);
width = 611;
}
);
metricLeft = "=H";
metricRight = "=E";
unicode = 70;
userData = {
KernOnName = F;
};
}
{
color = 6;
glyphname = G;
kernLeft = KO_O;
kernRight = KO_G;
layers = (
{
anchors = (
{
name = bottom;
pos = (389,0);
},
{
name = top;
pos = (389,700);
}
);
layerId = "70D15AE9-D38C-43AF-B37D-5B18830B62EE";
shapes = (
{
closed = 1;
nodes = (
(608,-16,o),
(727,129,o),
(708,388,c),
(389,388,l),
(389,262,l),
(604,262,l),
(558,296,l),
(568,184,o),
(507,116,o),
(389,116,cs),
(252,116,o),
(194,231,o),
(194,351,cs),
(194,469,o),
(252,584,o),
(389,584,cs),
(489,584,o),
(537,531,o),
(551,441,c),
(705,441,l),
(684,609,o),
(577,716,o),
(389,716,cs),
(166,716,o),
(43,552,o),
(43,351,cs),
(43,148,o),
(166,-16,o),
(389,-16,cs)
);
}
);
width = 753;
},
{
anchors = (
{
name = bottom;
pos = (381,0);
},
{
name = top;
pos = (381,700);
}
);
layerId = "B0101270-E9E4-4119-BDB6-6DA172BA76B6";
shapes = (
{
closed = 1;
nodes = (
(591,-16,o),
(726,91,o),
(713,358,c),
(394,358,l),
(394,292,l),
(682,292,l),
(636,319,l),
(644,194,o),
(585,56,o),
(394,56,cs),
(217,56,o),
(126,191,o),
(126,351,cs),
(126,509,o),
(217,644,o),
(394,644,cs),
(564,644,o),
(617,531,o),
(631,441,c),
(710,441,l),
(689,609,o),
(582,716,o),
(394,716,cs),
(171,716,o),
(48,552,o),
(48,351,cs),
(48,148,o),
(171,-16,o),
(394,-16,cs)
);
}
);
width = 762;
}
);
metricLeft = "=O";
metricRight = "=O";
unicode = 71;
}
{
color = 6;
glyphname = H;
kernLeft = KO_H;
kernRight = KO_H;
layers = (
{
anchors = (
{
name = bottom;
pos = (352,0);
},
{
name = center;
pos = (352,525);
},
{
name = top;
pos = (352,700);
},
{
name = topleft;
pos = (45,700);
}
);
layerId = "70D15AE9-D38C-43AF-B37D-5B18830B62EE";
shapes = (
{
closed = 1;
nodes = (
(67,0,l),
(212,0,l),
(212,700,l),
(67,700,l)
);
},
{
closed = 1;
nodes = (
(491,0,l),
(636,0,l),
(636,700,l),
(491,700,l)
);
},
{
closed = 1;
nodes = (
(122,289,l),
(614,289,l),
(614,415,l),
(122,415,l)
);
}
);
width = 703;
},
{
anchors = (
{
name = bottom;
pos = (347,0);
},
{
name = center;
pos = (347,525);
},
{
name = top;
pos = (347,700);
},
{
name = topleft;
pos = (50,700);
}
);
layerId = "B0101270-E9E4-4119-BDB6-6DA172BA76B6";
shapes = (
{
closed = 1;
nodes = (
(72,0,l),
(147,0,l),
(147,700,l),
(72,700,l)
);
},
{
closed = 1;
nodes = (
(546,0,l),
(621,0,l),
(621,700,l),
(546,700,l)
);
},
{
closed = 1;
nodes = (
(107,319,l),
(599,319,l),
(599,385,l),
(107,385,l)
);
}
);
width = 693;
}
);
unicode = 72;
userData = {
KernOnName = H;
};
}
{
color = 6;
glyphname = I;
kernLeft = KO_H;
kernRight = KO_H;
layers = (
{
anchors = (
{
name = bottom;
pos = (140,0);
},
{
name = ogonek;
pos = (212,0);
},
{
name = top;
pos = (140,700);
},
{
name = topleft;
pos = (45,700);
}
);
layerId = "70D15AE9-D38C-43AF-B37D-5B18830B62EE";
shapes = (
{
closed = 1;
nodes = (
(67,0,l),
(212,0,l),
(212,700,l),
(67,700,l)
);
}
);
width = 279;
},
{
anchors = (
{
name = bottom;
pos = (110,0);
},
{
name = ogonek;
pos = (147,0);
},
{
name = top;
pos = (110,700);
},
{
name = topleft;
pos = (50,700);
}
);
layerId = "B0101270-E9E4-4119-BDB6-6DA172BA76B6";
shapes = (
{
closed = 1;
nodes = (
(72,0,l),
(147,0,l),
(147,700,l),
(72,700,l)
);
}
);
width = 219;
}
);
metricLeft = "=H";
metricRight = "=H";
unicode = 73;
userData = {
KernOnName = I;
};
}
{
color = 6;
glyphname = J;
kernLeft = KO_J;
kernRight = KO_J;
layers = (
{
anchors = (
{
name = bottom;
pos = (190,0);
},
{
name = top;
pos = (239,700);
}
);
layerId = "70D15AE9-D38C-43AF-B37D-5B18830B62EE";
shapes = (
{
closed = 1;
nodes = (
(167,700,l),
(167,176,l),
(167,143,o),
(151,126,o),
(115,126,c),
(45,126,l),
(45,0,l),
(116,0,l),
(247,0,o),
(312,57,o),
(312,172,c),
(312,700,l)
);
}
);
width = 379;
},
{
anchors = (
{
name = bottom;
pos = (177,0);
},
{
name = top;
pos = (246,700);
}
);
layerId = "B0101270-E9E4-4119-BDB6-6DA172BA76B6";
shapes = (
{
closed = 1;
nodes = (
(209,700,l),
(209,132,l),
(209,78,o),
(190,62,o),
(150,62,c),
(50,62,l),
(50,0,l),
(151,0,l),
(242,0,o),
(282,42,o),
(282,132,c),
(282,700,l)
);
}
);
width = 354;
}
);
metricRight = "=H";
unicode = 74;
userData = {
KernOnName = J;
};
}
{
color = 6;
glyphname = K;
kernLeft = KO_H;
kernRight = KO_K;
layers = (
{
anchors = (
{
name = bottom;
pos = (338,0);
},
{
name = top;
pos = (338,700);
}
);
layerId = "70D15AE9-D38C-43AF-B37D-5B18830B62EE";
shapes = (
{
closed = 1;
nodes = (
(67,0,l),
(210,0,l),
(210,700,l),
(67,700,l)
);
},
{
closed = 1;
nodes = (
(432,700,l),
(75,247,l),
(156,126,l),
(610,700,l)
);
},
{
closed = 1;
nodes = (
(242,335,l),
(452,0,l),
(630,0,l),
(329,448,l)
);
}
);
width = 671;
},
{
anchors = (
{
name = bottom;
pos = (323,0);
},
{
name = top;
pos = (323,700);
}
);
layerId = "B0101270-E9E4-4119-BDB6-6DA172BA76B6";
shapes = (
{
closed = 1;
nodes = (
(72,0,l),
(147,0,l),
(147,700,l),
(72,700,l)
);
},
{
closed = 1;
nodes = (
(487,700,l),
(138,262,l),
(122,128,l),
(578,700,l)
);
},
{
closed = 1;
nodes = (
(282,343,l),
(497,0,l),
(595,0,l),
(317,419,l)
);
}
);
width = 641;
}
);
metricLeft = "=H";
unicode = 75;
userData = {
KernOnName = K;
};
}
{
color = 6;
glyphname = L;
kernLeft = KO_H;
kernRight = KO_L;
layers = (
{
anchors = (
{
name = bottom;
pos = (272,0);
},
{
name = center;
pos = (272,350);
},
{
name = top;
pos = (133,700);
},
{
name = topright;
pos = (262,700);
}
);
layerId = "70D15AE9-D38C-43AF-B37D-5B18830B62EE";
shapes = (
{
closed = 1;
nodes = (
(67,0,l),
(212,0,l),
(212,700,l),
(67,700,l)
);
},
{
closed = 1;
nodes = (
(212,0,l),
(498,0,l),
(498,126,l),
(212,126,l)
);
}
);
width = 533;
},
{
anchors = (
{
name = bottom;
pos = (267,0);
},
{
name = center;
pos = (267,350);
},
{
name = top;
pos = (109,700);
},
{
name = topright;
pos = (224,700);
}
);
layerId = "B0101270-E9E4-4119-BDB6-6DA172BA76B6";
shapes = (
{
closed = 1;
nodes = (
(72,0,l),
(147,0,l),
(147,700,l),
(72,700,l)
);
},
{
closed = 1;
nodes = (
(100,0,l),
(483,0,l),
(483,66,l),
(100,66,l)
);
}
);
width = 523;
}
);
metricLeft = "=H";
unicode = 76;
userData = {
KernOnName = L;
};
}
{
color = 6;
glyphname = N;
kernLeft = KO_H;
kernRight = KO_H;
layers = (
{
anchors = (
{
name = bottom;
pos = (363,0);
},
{
name = top;
pos = (363,700);
}
);
layerId = "70D15AE9-D38C-43AF-B37D-5B18830B62EE";
shapes = (
{
closed = 1;
nodes = (
(602,0,l),
(281,700,l),
(123,700,l),
(444,0,l)
);
},
{
closed = 1;
nodes = (
(67,0,l),
(207,0,l),
(207,700,l),
(67,700,l)
);
},
{
closed = 1;
nodes = (
(518,0,l),
(658,0,l),
(658,700,l),
(518,700,l)
);
}
);
width = 725;
},
{
anchors = (
{
name = bottom;
pos = (328,0);
},
{
name = top;
pos = (328,700);
}
);
layerId = "B0101270-E9E4-4119-BDB6-6DA172BA76B6";
shapes = (
{
closed = 1;
nodes = (
(567,0,l),
(171,700,l),
(88,700,l),
(484,0,l)
);
},
{
closed = 1;
nodes = (
(72,0,l),
(142,0,l),
(142,700,l),
(72,700,l)
);
},
{
closed = 1;
nodes = (
(513,0,l),
(583,0,l),
(583,700,l),
(513,700,l)
);
}
);
width = 655;
}
);
metricLeft = "=H";
metricRight = "=H";
unicode = 78;
userData = {
KernOnName = N;
};
}
{
color = 6;
glyphname = Q;
kernLeft = KO_O;
kernRight = KO_O;
layers = (
{
anchors = (
{
name = bottom;
pos = (389,0);
},
{
name = top;
pos = (389,700);
}
);
layerId = "70D15AE9-D38C-43AF-B37D-5B18830B62EE";
shapes = (
{
closed = 1;
nodes = (
(611,-16,o),
(734,148,o),
(734,351,cs),
(734,552,o),
(611,716,o),
(389,716,cs),
(166,716,o),
(43,552,o),
(43,351,cs),
(43,148,o),
(166,-16,o),
(389,-16,cs)
);
},
{
closed = 1;
nodes = (
(583,-200,l),
(583,-74,l),
(461,-74,l),
(461,32,l),
(316,32,l),
(316,-200,l)
);
},
{
closed = 1;
nodes = (
(252,116,o),
(194,231,o),
(194,351,cs),
(194,469,o),
(252,584,o),
(389,584,cs),
(525,584,o),
(583,469,o),
(583,351,cs),
(583,231,o),
(525,116,o),
(389,116,cs)
);
}
);
width = 777;
},
{
anchors = (
{
name = bottom;
pos = (394,0);
},
{
name = top;
pos = (394,700);
}
);
layerId = "B0101270-E9E4-4119-BDB6-6DA172BA76B6";
shapes = (
{
closed = 1;
nodes = (
(616,-16,o),
(739,148,o),
(739,351,cs),
(739,552,o),
(616,716,o),
(394,716,cs),
(171,716,o),
(48,552,o),
(48,351,cs),
(48,148,o),
(171,-16,o),
(394,-16,cs)
);
},
{
closed = 1;
nodes = (
(589,-200,l),
(589,-134,l),
(431,-134,l),
(431,32,l),
(356,32,l),
(356,-200,l)
);
},
{
closed = 1;
nodes = (
(218,56,o),
(126,201,o),
(126,351,cs),
(126,499,o),
(218,644,o),
(394,644,cs),
(570,644,o),
(651,499,o),
(651,351,cs),
(651,201,o),
(570,56,o),
(394,56,cs)
);
}
);
width = 787;
}
);
metricLeft = "=O";
metricRight = "=O";
unicode = 81;
}
{
color = 6;
glyphname = W;
kernLeft = KO_W;
kernRight = KO_W;
layers = (
{
anchors = (
{
name = bottom;
pos = (528,0);
},
{
name = top;
pos = (528,700);
}
);
layerId = "70D15AE9-D38C-43AF-B37D-5B18830B62EE";
shapes = (
{
closed = 1;
nodes = (
(349,0,l),
(178,700,l),
(35,700,l),
(216,0,l)
);
},
{
closed = 1;
nodes = (
(592,700,l),
(449,700,l),
(278,0,l),
(411,0,l)
);
},
{
closed = 1;
nodes = (
(778,0,l),
(607,700,l),
(464,700,l),
(645,0,l)
);
},
{
closed = 1;
nodes = (
(1021,700,l),
(878,700,l),
(707,0,l),
(840,0,l)
);
}
);
width = 1056;
},
{
anchors = (
{
name = bottom;
pos = (469,0);
},
{
name = top;
pos = (469,700);
}
);
layerId = "B0101270-E9E4-4119-BDB6-6DA172BA76B6";
shapes = (
{
closed = 1;
nodes = (
(289,0,l),
(118,700,l),
(40,700,l),
(221,0,l)
);
},
{
closed = 1;
nodes = (
(498,700,l),
(420,700,l),
(249,0,l),
(317,0,l)
);
},
{
closed = 1;
nodes = (
(688,0,l),
(517,700,l),
(439,700,l),
(620,0,l)
);
},
{
closed = 1;
nodes = (
(897,700,l),
(819,700,l),
(648,0,l),
(716,0,l)
);
}
);
width = 937;
}
);
metricRight = "=V";
unicode = 87;
userData = {
KernOnName = W;
};
}
{
color = 6;
glyphname = Z;
kernLeft = KO_Z;
kernRight = KO_Z;
layers = (
{
anchors = (
{
name = bottom;
pos = (318,0);
},
{
name = center;
pos = (318,350);
},
{
name = top;
pos = (318,700);
}
);
layerId = "70D15AE9-D38C-43AF-B37D-5B18830B62EE";
shapes = (
{
closed = 1;
nodes = (
(55,574,l),
(508,574,l),
(586,617,l),
(586,700,l),
(55,700,l)
);
},
{
closed = 1;
nodes = (
(586,617,l),
(586,700,l),
(469,700,l),
(45,83,l),
(163,0,l)
);
},
{
closed = 1;
nodes = (
(590,126,l),
(123,126,l),
(45,83,l),
(45,0,l),
(590,0,l)
);
}
);
width = 635;
},
{
anchors = (
{
name = bottom;
pos = (308,0);
},
{
name = center;
pos = (308,350);
},
{
name = top;
pos = (308,700);
}
);
layerId = "B0101270-E9E4-4119-BDB6-6DA172BA76B6";
shapes = (
{
closed = 1;
nodes = (
(60,634,l),
(483,634,l),
(561,657,l),
(561,700,l),
(60,700,l)
);
},
{
closed = 1;
nodes = (
(561,657,l),
(561,700,l),
(506,700,l),
(50,43,l),
(106,0,l)
);
},
{
closed = 1;
nodes = (
(565,66,l),
(128,66,l),
(50,43,l),
(50,0,l),
(565,0,l)
);
}
);
width = 615;
},
{
anchors = (
{
name = bottom;
pos = (308,0);
},
{
name = center;
pos = (308,350);
},
{
name = top;
pos = (308,700);
}
);
associatedMasterId = "B0101270-E9E4-4119-BDB6-6DA172BA76B6";
layerId = "51070FC0-1916-43D8-8915-A19116F0206A";
name = "1 Sep 25 at 15:38";
shapes = (
{
closed = 1;
nodes = (
(60,634,l),
(483,634,l),
(561,657,l),
(561,700,l),
(60,700,l)
);
},
{
closed = 1;
nodes = (
(561,657,l),
(561,700,l),
(509,700,l),
(50,43,l),
(103,0,l)
);
},
{
closed = 1;
nodes = (
(565,66,l),
(128,66,l),
(50,43,l),
(50,0,l),
(565,0,l)
);
}
);
width = 615;
}
);
unicode = 90;
userData = {
KernOnName = Z;
};
}
{
color = 6;
glyphname = backslash;
kernLeft = KO_backslash;
kernRight = KO_backslash;
layers = (
{
layerId = "70D15AE9-D38C-43AF-B37D-5B18830B62EE";
shapes = (
{
closed = 1;
nodes = (
(35,700,l),
(235,0,l),
(377,0,l),
(177,700,l)
);
}
);
width = 412;
},
{
layerId = "B0101270-E9E4-4119-BDB6-6DA172BA76B6";
shapes = (
{
closed = 1;
nodes = (
(40,700,l),
(240,0,l),
(317,0,l),
(117,700,l)
);
}
);
width = 357;
}
);
unicode = 92;
}
{
color = 6;
glyphname = underscore;
kernLeft = KO_underscore;
kernRight = KO_underscore;
layers = (
{
layerId = "70D15AE9-D38C-43AF-B37D-5B18830B62EE";
shapes = (
{
closed = 1;
nodes = (
(56,-152,l),
(546,-152,l),
(546,-30,l),
(56,-30,l)
);
}
);
width = 601;
},
{
layerId = "B0101270-E9E4-4119-BDB6-6DA172BA76B6";
shapes = (
{
closed = 1;
nodes = (
(61,-92,l),
(551,-92,l),
(551,-30,l),
(61,-30,l)
);
}
);
width = 611;
}
);
unicode = 95;
}
{
color = 6;
glyphname = b;
kernLeft = KO_l;
kernRight = KO_p;
layers = (
{
anchors = (
{
name = bottom;
pos = (331,0);
},
{
name = center;
pos = (174,600);
},
{
name = top;
pos = (331,560);
}
);
layerId = "70D15AE9-D38C-43AF-B37D-5B18830B62EE";
shapes = (
{
closed = 1;
nodes = (
(525,-16,o),
(618,106,o),
(618,279,cs),
(618,453,o),
(525,576,o),
(366,576,cs),
(238,576,o),
(181,495,o),
(155,360,c),
(157,196,l),
(179,72,o),
(230,-16,o),
(366,-16,cs)
);
},
{
closed = 1;
nodes = (
(206,0,l),
(206,750,l),
(63,750,l),
(63,0,l)
);
},
{
closed = 1;
nodes = (
(249,112,o),
(206,186,o),
(206,279,cs),
(206,373,o),
(249,448,o),
(341,448,cs),
(428,448,o),
(472,373,o),
(472,279,cs),
(472,186,o),
(428,112,o),
(341,112,cs)
);
}
);
width = 658;
},
{
anchors = (
{
name = bottom;
pos = (321,0);
},
{
name = center;
pos = (172,600);
},
{
name = top;
pos = (321,560);
}
);
layerId = "B0101270-E9E4-4119-BDB6-6DA172BA76B6";
shapes = (
{
closed = 1;
nodes = (
(490,-16,o),
(593,106,o),
(593,279,cs),
(593,453,o),
(490,576,o),
(341,576,cs),
(194,576,o),
(116,465,o),
(110,310,c),
(112,246,l),
(114,102,o),
(186,-16,o),
(341,-16,cs)
);
},
{
closed = 1;
nodes = (
(141,0,l),
(141,750,l),
(68,750,l),
(68,0,l)
);
},
{
closed = 1;
nodes = (
(207,52,o),
(141,146,o),
(141,279,cs),
(141,413,o),
(207,508,o),
(336,508,cs),
(443,508,o),
(517,423,o),
(517,279,cs),
(517,136,o),
(443,52,o),
(336,52,cs)
);
}
);
width = 638;
}
);
metricLeft = "=l";
metricRight = "=o";
unicode = 98;
userData = {
KernOnName = b;
};
}
{
color = 6;
glyphname = c;
kernLeft = KO_o;
kernRight = KO_c;
layers = (
{
anchors = (
{
name = bottom;
pos = (315,0);
},
{
name = top;
pos = (315,560);
}
);
layerId = "70D15AE9-D38C-43AF-B37D-5B18830B62EE";
shapes = (
{
closed = 1;
nodes = (
(440,235,l),
(440,171,o),
(406,114,o),
(326,114,cs),
(223,114,o),
(186,186,o),
(186,279,cs),
(186,373,o),
(223,446,o),
(326,446,cs),
(405,446,o),
(436,393,o),
(436,340,c),
(587,340,l),
(587,463,o),
(478,576,o),
(326,576,cs),
(153,576,o),
(40,453,o),
(40,279,cs),
(40,106,o),
(153,-16,o),
(326,-16,cs),
(484,-16,o),
(589,90,o),
(589,235,c)
);
}
);
width = 629;
},
{
anchors = (
{
name = bottom;
pos = (320,0);
},
{
name = top;
pos = (320,560);
}
);
layerId = "B0101270-E9E4-4119-BDB6-6DA172BA76B6";
shapes = (
{
closed = 1;
nodes = (
(520,235,l),
(510,141,o),
(461,52,o),
(331,52,cs),
(198,52,o),
(121,146,o),
(121,279,cs),
(121,413,o),
(198,508,o),
(331,508,cs),
(450,508,o),
(506,423,o),
(516,340,c),
(592,340,l),
(582,463,o),
(483,576,o),
(331,576,cs),
(158,576,o),
(45,453,o),
(45,279,cs),
(45,106,o),
(158,-16,o),
(331,-16,cs),
(489,-16,o),
(584,90,o),
(594,235,c)
);
}
);
width = 639;
}
);
metricLeft = "=o";
metricRight = "=o";
unicode = 99;
userData = {
KernOnName = c;
};
}
{
color = 6;
glyphname = g;
kernLeft = KO_g;
kernRight = KO_u;
layers = (
{
anchors = (
{
name = bottom;
pos = (324,-200);
},
{
name = top;
pos = (324,560);
}
);
layerId = "70D15AE9-D38C-43AF-B37D-5B18830B62EE";
shapes = (
{
closed = 1;
nodes = (
(428,4,o),
(479,82,o),
(501,206,c),
(503,370,l),
(477,505,o),
(420,576,o),
(292,576,cs),
(133,576,o),
(40,463,o),
(40,289,cs),
(40,116,o),
(133,4,o),
(292,4,cs)
);
},
{
closed = 1;
nodes = (
(482,-216,o),
(595,-128,o),
(595,30,c),
(452,30,l),
(452,-60,o),
(397,-88,o),
(337,-88,cs),
(278,-88,o),
(230,-76,o),
(216,-24,c),
(69,-24,l),
(85,-119,o),
(159,-216,o),
(337,-216,cs)
);
},
{
closed = 1;
nodes = (
(230,132,o),
(186,196,o),
(186,289,cs),
(186,383,o),
(230,448,o),
(317,448,cs),
(409,448,o),
(452,383,o),
(452,289,cs),
(452,196,o),
(409,132,o),
(317,132,cs)
);
},
{
closed = 1;
nodes = (
(595,30,l),
(595,560,l),
(452,560,l),
(452,30,l)
);
}
);
width = 656;
},
{
anchors = (
{
name = bottom;
pos = (314,-200);
},
{
name = top;
pos = (314,560);
}
);
layerId = "B0101270-E9E4-4119-BDB6-6DA172BA76B6";
shapes = (
{
closed = 1;
nodes = (
(452,4,o),
(524,112,o),
(526,256,c),
(528,320,l),
(522,475,o),
(444,576,o),
(297,576,cs),
(148,576,o),
(45,463,o),
(45,289,cs),
(45,116,o),
(148,4,o),
(297,4,cs)
);
},
{
closed = 1;
nodes = (
(477,-216,o),
(570,-128,o),
(570,30,c),
(497,30,l),
(497,-90,o),
(442,-148,o),
(332,-148,cs),
(223,-148,o),
(163,-103,o),
(151,-24,c),
(74,-24,l),
(90,-119,o),
(154,-216,o),
(332,-216,cs)
);
},
{
closed = 1;
nodes = (
(195,72,o),
(121,146,o),
(121,289,cs),
(121,433,o),
(195,508,o),
(302,508,cs),
(431,508,o),
(497,423,o),
(497,289,cs),
(497,156,o),
(431,72,o),
(302,72,cs)
);
},
{
closed = 1;
nodes = (
(570,30,l),
(570,560,l),
(497,560,l),
(497,30,l)
);
}
);
width = 636;
}
);
metricLeft = "=o";
metricRight = "=|n";
unicode = 103;
userData = {
KernOnName = g;
};
}
{
color = 6;
glyphname = m;
kernLeft = KO_n;
kernRight = KO_n;
layers = (
{
anchors = (
{
name = bottom;
pos = (465,0);
},
{
name = top;
pos = (465,560);
}
);
layerId = "70D15AE9-D38C-43AF-B37D-5B18830B62EE";
shapes = (
{
closed = 1;
nodes = (
(61,0,l),
(204,0,l),
(204,560,l),
(61,560,l)
);
},
{
closed = 1;
nodes = (
(204,407,o),
(276,452,o),
(326,452,cs),
(392,452,o),
(394,398,o),
(394,332,cs),
(394,0,l),
(537,0,l),
(537,345,ls),
(537,516,o),
(465,576,o),
(366,576,cs),
(223,576,o),
(188,459,o),
(188,389,c),
(204,274,l)
);
},
{
closed = 1;
nodes = (
(537,407,o),
(609,452,o),
(659,452,cs),
(725,452,o),
(727,398,o),
(727,332,cs),
(727,0,l),
(870,0,l),
(870,345,ls),
(870,516,o),
(798,576,o),
(699,576,cs),
(556,576,o),
(499,459,o),
(499,389,c),
(537,274,l)
);
}
);
width = 929;
},
{
anchors = (
{
name = bottom;
pos = (445,0);
},
{
name = top;
pos = (445,560);
}
);
layerId = "B0101270-E9E4-4119-BDB6-6DA172BA76B6";
shapes = (
{
closed = 1;
nodes = (
(66,0,l),
(139,0,l),
(139,560,l),
(66,560,l)
);
},
{
closed = 1;
nodes = (
(139,417,o),
(201,512,o),
(291,512,cs),
(387,512,o),
(409,448,o),
(409,332,cs),
(409,0,l),
(482,0,l),
(482,345,ls),
(482,516,o),
(414,576,o),
(306,576,cs),
(170,576,o),
(123,459,o),
(123,389,c),
(139,284,l)
);
},
{
closed = 1;
nodes = (
(482,417,o),
(544,512,o),
(634,512,cs),
(730,512,o),
(752,448,o),
(752,332,cs),
(752,0,l),
(825,0,l),
(825,345,ls),
(825,516,o),
(757,576,o),
(649,576,cs),
(513,576,o),
(466,459,o),
(466,389,c),
(482,284,l)
);
}
);
width = 889;
}
);
metricLeft = "=n";
metricRight = "=n";
unicode = 109;
}
{
color = 6;
glyphname = n;
kernLeft = KO_n;
kernRight = KO_n;
layers = (
{
anchors = (
{
name = bottom;
pos = (313,0);
},
{
name = top;
pos = (313,560);
}
);
layerId = "70D15AE9-D38C-43AF-B37D-5B18830B62EE";
shapes = (
{
closed = 1;
nodes = (
(61,0,l),
(204,0,l),
(204,274,ls),
(204,407,o),
(281,452,o),
(341,452,cs),
(417,452,o),
(424,398,o),
(424,332,cs),
(424,0,l),
(567,0,l),
(567,345,ls),
(567,516,o),
(489,576,o),
(381,576,cs),
(276,576,o),
(226,527,o),
(204,474,c),
(204,560,l),
(61,560,l)
);
}
);
width = 626;
},
{
anchors = (
{
name = bottom;
pos = (293,0);
},
{
name = top;
pos = (293,560);
}
);
layerId = "B0101270-E9E4-4119-BDB6-6DA172BA76B6";
shapes = (
{
closed = 1;
nodes = (
(66,0,l),
(139,0,l),
(139,284,ls),
(139,417,o),
(216,512,o),
(316,512,cs),
(412,512,o),
(449,448,o),
(449,332,cs),
(449,0,l),
(522,0,l),
(522,345,ls),
(522,516,o),
(439,576,o),
(331,576,cs),
(223,576,o),
(164,520,o),
(139,462,c),
(139,560,l),
(66,560,l)
);
}
);
width = 586;
}
);
unicode = 110;
userData = {
KernOnName = n;
};
}
{
color = 6;
glyphname = o;
kernLeft = KO_o;
kernRight = KO_o;
layers = (
{
anchors = (
{
name = bottom;
pos = (326,0);
},
{
name = center;
pos = (326,280);
},
{
name = ogonek;
pos = (575,10);
},
{
name = top;
pos = (326,560);
},
{
name = topright;
pos = (617,560);
}
);
layerId = "70D15AE9-D38C-43AF-B37D-5B18830B62EE";
shapes = (
{
closed = 1;
nodes = (
(499,-16,o),
(612,106,o),
(612,279,cs),
(612,453,o),
(499,576,o),
(326,576,cs),
(153,576,o),
(40,453,o),
(40,279,cs),
(40,106,o),
(153,-16,o),
(326,-16,cs)
);
},
{
closed = 1;
nodes = (
(229,112,o),
(186,186,o),
(186,279,cs),
(186,373,o),
(229,448,o),
(326,448,cs),
(423,448,o),
(466,373,o),
(466,279,cs),
(466,186,o),
(423,112,o),
(326,112,cs)
);
}
);
width = 652;
},
{
anchors = (
{
name = bottom;
pos = (331,0);
},
{
name = center;
pos = (331,280);
},
{
name = ogonek;
pos = (580,10);
},
{
name = top;
pos = (331,560);
},
{
name = topright;
pos = (622,560);
}
);
layerId = "B0101270-E9E4-4119-BDB6-6DA172BA76B6";
shapes = (
{
closed = 1;
nodes = (
(504,-16,o),
(617,106,o),
(617,279,cs),
(617,453,o),
(504,576,o),
(331,576,cs),
(158,576,o),
(45,453,o),
(45,279,cs),
(45,106,o),
(158,-16,o),
(331,-16,cs)
);
},
{
closed = 1;
nodes = (
(209,52,o),
(121,136,o),
(121,279,cs),
(121,423,o),
(209,508,o),
(331,508,cs),
(453,508,o),
(541,423,o),
(541,279,cs),
(541,136,o),
(453,52,o),
(331,52,cs)
);
}
);
width = 662;
}
);
unicode = 111;
userData = {
KernOnName = o;
};
}
{
color = 6;
glyphname = u;
kernLeft = KO_u;
kernRight = KO_u;
layers = (
{
anchors = (
{
name = bottom;
pos = (313,0);
},
{
name = ogonek;
pos = (565,0);
},
{
name = top;
pos = (313,560);
},
{
name = topright;
pos = (582,560);
}
);
layerId = "70D15AE9-D38C-43AF-B37D-5B18830B62EE";
shapes = (
{
closed = 1;
nodes = (
(565,560,l),
(422,560,l),
(422,0,l),
(565,0,l)
);
},
{
closed = 1;
nodes = (
(422,153,o),
(345,108,o),
(285,108,cs),
(209,108,o),
(201,162,o),
(201,228,cs),
(201,560,l),
(59,560,l),
(59,215,ls),
(59,44,o),
(137,-16,o),
(245,-16,cs),
(408,-16,o),
(438,101,o),
(438,171,c),
(422,286,l)
);
}
);
width = 626;
},
{
anchors = (
{
name = bottom;
pos = (293,0);
},
{
name = ogonek;
pos = (520,0);
},
{
name = top;
pos = (293,560);
},
{
name = topright;
pos = (537,560);
}
);
layerId = "B0101270-E9E4-4119-BDB6-6DA172BA76B6";
shapes = (
{
closed = 1;
nodes = (
(520,560,l),
(447,560,l),
(447,0,l),
(520,0,l)
);
},
{
closed = 1;
nodes = (
(447,143,o),
(370,48,o),
(270,48,cs),
(174,48,o),
(137,112,o),
(137,228,cs),
(137,560,l),
(64,560,l),
(64,215,ls),
(64,44,o),
(147,-16,o),
(255,-16,cs),
(411,-16,o),
(463,101,o),
(463,171,c),
(447,276,l)
);
}
);
width = 586;
},
{
anchors = (
{
name = bottom;
pos = (313,0);
},
{
name = ogonek;
pos = (565,0);
},
{
name = top;
pos = (313,560);
},
{
name = topright;
pos = (582,560);
}
);
associatedMasterId = "70D15AE9-D38C-43AF-B37D-5B18830B62EE";
layerId = "DFC07303-84DA-4FC3-A45A-4FAC6F7004D1";
name = "1 Sep 25 at 16:03";
shapes = (
{
closed = 1;
nodes = (
(565,560,l),
(422,560,l),
(422,0,l),
(565,0,l)
);
},
{
closed = 1;
nodes = (
(422,153,o),
(345,108,o),
(285,108,cs),
(209,108,o),
(197,162,o),
(198,228,cs),
(201,560,l),
(59,560,l),
(59,215,ls),
(59,44,o),
(137,-16,o),
(245,-16,cs),
(408,-16,o),
(438,101,o),
(438,171,c),
(422,286,l)
);
}
);
width = 626;
}
);
metricRight = "=|n";
unicode = 117;
userData = {
KernOnName = u;
};
}
{
color = 6;
glyphname = x;
kernLeft = KO_x;
kernRight = KO_x;
layers = (
{
anchors = (
{
name = bottom;
pos = (299,0);
},
{
name = top;
pos = (299,560);
}
);
layerId = "70D15AE9-D38C-43AF-B37D-5B18830B62EE";
shapes = (
{
closed = 1;
nodes = (
(395,0,l),
(562,0,l),
(205,560,l),
(38,560,l)
);
},
{
closed = 1;
nodes = (
(392,560,l),
(35,0,l),
(202,0,l),
(559,560,l)
);
}
);
width = 597;
},
{
anchors = (
{
name = bottom;
pos = (262,0);
},
{
name = top;
pos = (262,560);
}
);
layerId = "B0101270-E9E4-4119-BDB6-6DA172BA76B6";
shapes = (
{
closed = 1;
nodes = (
(400,0,l),
(483,0,l),
(126,560,l),
(43,560,l)
);
},
{
closed = 1;
nodes = (
(397,560,l),
(40,0,l),
(123,0,l),
(480,560,l)
);
}
);
width = 523;
}
);
unicode = 120;
userData = {
KernOnName = x;
};
}
{
color = 6;
glyphname = y;
kernLeft = KO_v;
kernRight = KO_v;
layers = (
{
anchors = (
{
name = bottom;
pos = (300,0);
},
{
name = top;
pos = (300,560);
}
);
layerId = "70D15AE9-D38C-43AF-B37D-5B18830B62EE";
shapes = (
{
closed = 1;
nodes = (
(163,-200,l),
(318,-200,o),
(352,-138,o),
(396,0,c),
(566,560,l),
(413,560,l),
(255,4,l),
(238,-45,o),
(224,-78,o),
(163,-78,c),
(102,-78,l),
(102,-200,l)
);
},
{
closed = 1;
nodes = (
(336,0,l),
(186,560,l),
(33,560,l),
(203,0,l)
);
}
);
width = 599;
},
{
anchors = (
{
name = bottom;
pos = (282,0);
},
{
name = top;
pos = (282,560);
}
);
layerId = "B0101270-E9E4-4119-BDB6-6DA172BA76B6";
shapes = (
{
closed = 1;
nodes = (
(143,-200,ls),
(254,-200,o),
(292,-138,o),
(336,0,cs),
(526,560,l),
(446,560,l),
(263,0,l),
(236,-76,o),
(222,-138,o),
(141,-138,cs),
(72,-138,l),
(72,-200,l)
);
},
{
closed = 1;
nodes = (
(301,0,l),
(118,560,l),
(38,560,l),
(228,0,l)
);
}
);
width = 564;
}
);
metricLeft = "=v";
metricRight = "=v";
unicode = 121;
userData = {
KernOnName = y;
};
}
{
color = 6;
glyphname = braceright;
kernLeft = KO_braceright;
layers = (
{
layerId = "70D15AE9-D38C-43AF-B37D-5B18830B62EE";
shapes = (
{
closed = 1;
nodes = (
(62,-172,ls),
(227,-172,o),
(267,-72,o),
(267,56,cs),
(267,143,o),
(287,215,o),
(348,225,c),
(348,319,l),
(287,329,o),
(267,401,o),
(267,488,cs),
(267,616,o),
(227,716,o),
(62,716,cs),
(35,716,l),
(35,636,l),
(62,636,ls),
(139,636,o),
(146,580,o),
(146,461,cs),
(146,336,o),
(183,280,o),
(250,272,c),
(183,264,o),
(146,208,o),
(146,83,cs),
(146,-36,o),
(139,-92,o),
(62,-92,cs),
(35,-92,l),
(35,-172,l)
);
}
);
width = 378;
},
{
layerId = "B0101270-E9E4-4119-BDB6-6DA172BA76B6";
shapes = (
{
closed = 1;
nodes = (
(50,-172,ls),
(215,-172,o),
(255,-72,o),
(255,56,cs),
(255,161,o),
(275,228,o),
(353,238,c),
(353,305,l),
(275,315,o),
(255,383,o),
(255,488,cs),
(255,616,o),
(215,716,o),
(50,716,cs),
(40,716,l),
(40,662,l),
(50,662,ls),
(160,662,o),
(186,603,o),
(186,461,cs),
(186,336,o),
(223,280,o),
(276,272,c),
(223,264,o),
(186,208,o),
(186,83,cs),
(186,-59,o),
(160,-118,o),
(50,-118,cs),
(40,-118,l),
(40,-172,l)
);
}
);
width = 388;
},
{
associatedMasterId = "B0101270-E9E4-4119-BDB6-6DA172BA76B6";
layerId = "B0268BFE-43EB-4405-BBA4-E89AEBBC05E6";
name = "2 Sep 25 at 13:54";
shapes = (
{
closed = 1;
nodes = (
(40,716,l),
(40,666,l),
(47,666,ls),
(162,666,o),
(191,606,o),
(191,461,cs),
(191,325,o),
(235,271,o),
(292,271,cs),
(353,271,l),
(353,303,l),
(272,313,o),
(252,381,o),
(252,488,cs),
(252,616,o),
(212,716,o),
(47,716,cs)
);
},
{
closed = 1;
nodes = (
(212,-172,o),
(252,-72,o),
(252,56,cs),
(252,163,o),
(272,230,o),
(353,240,c),
(353,273,l),
(292,273,ls),
(235,273,o),
(191,219,o),
(191,83,cs),
(191,-62,o),
(162,-122,o),
(47,-122,cs),
(40,-122,l),
(40,-172,l),
(47,-172,ls)
);
}
);
width = 388;
},
{
associatedMasterId = "70D15AE9-D38C-43AF-B37D-5B18830B62EE";
layerId = "6A6DB81F-E8C3-40A1-BB4B-A5BF8D574205";
name = "2 Sep 25 at 13:54";
shapes = (
{
closed = 1;
nodes = (
(35,716,l),
(35,636,l),
(62,636,ls),
(139,636,o),
(146,580,o),
(146,461,cs),
(146,325,o),
(190,271,o),
(267,271,cs),
(348,271,l),
(348,319,l),
(287,329,o),
(267,401,o),
(267,488,cs),
(267,616,o),
(227,716,o),
(62,716,cs)
);
},
{
closed = 1;
nodes = (
(227,-172,o),
(267,-72,o),
(267,56,cs),
(267,143,o),
(287,215,o),
(348,225,c),
(348,273,l),
(267,273,ls),
(190,273,o),
(146,219,o),
(146,83,cs),
(146,-36,o),
(139,-92,o),
(62,-92,cs),
(35,-92,l),
(35,-172,l),
(62,-172,ls)
);
}
);
width = 378;
}
);
metricRight = "=|braceleft";
unicode = 125;
}
{
color = 6;
glyphname = exclamdown;
kernRight = KO_exclam;
layers = (
{
layerId = "70D15AE9-D38C-43AF-B37D-5B18830B62EE";
shapes = (
{
closed = 1;
nodes = (
(211,-140,l),
(211,340,l),
(68,340,l),
(68,-140,l)
);
},
{
closed = 1;
nodes = (
(216,407,l),
(216,560,l),
(63,560,l),
(63,407,l)
);
}
);
width = 279;
},
{
layerId = "B0101270-E9E4-4119-BDB6-6DA172BA76B6";
shapes = (
{
closed = 1;
nodes = (
(152,-140,l),
(152,370,l),
(74,370,l),
(74,-140,l)
);
},
{
closed = 1;
nodes = (
(157,467,l),
(157,560,l),
(68,560,l),
(68,467,l)
);
}
);
width = 225;
}
);
metricRight = "=exclam";
unicode = 161;
}
{
color = 6;
glyphname = yen;
layers = (
{
layerId = "70D15AE9-D38C-43AF-B37D-5B18830B62EE";
shapes = (
{
closed = 1;
nodes = (
(392,342,l),
(632,700,l),
(464,700,l),
(320,475,l),
(358,475,l),
(213,700,l),
(45,700,l),
(285,342,l)
);
},
{
closed = 1;
nodes = (
(266,0,l),
(411,0,l),
(411,499,l),
(266,499,l)
);
},
{
closed = 1;
nodes = (
(147,373,l),
(529,373,l),
(529,473,l),
(147,473,l)
);
},
{
closed = 1;
nodes = (
(147,213,l),
(529,213,l),
(529,313,l),
(147,313,l)
);
}
);
width = 677;
},
{
layerId = "B0101270-E9E4-4119-BDB6-6DA172BA76B6";
shapes = (
{
closed = 1;
nodes = (
(337,379,l),
(577,700,l),
(489,700,l),
(301,454,l),
(327,454,l),
(138,700,l),
(50,700,l),
(290,379,l)
);
},
{
closed = 1;
nodes = (
(276,0,l),
(351,0,l),
(351,466,l),
(276,466,l)
);
},
{
closed = 1;
nodes = (
(126,375,l),
(501,375,l),
(501,441,l),
(126,441,l)
);
},
{
closed = 1;
nodes = (
(126,229,l),
(501,229,l),
(501,295,l),
(126,295,l)
);
}
);
width = 627;
},
{
associatedMasterId = "70D15AE9-D38C-43AF-B37D-5B18830B62EE";
layerId = "C0E05CF9-71AF-46BC-88C8-8D92EF85D04A";
name = "2 Sep 25 at 14:19";
shapes = (
{
closed = 1;
nodes = (
(392,192,l),
(632,700,l),
(484,700,l),
(320,339,l),
(358,339,l),
(193,700,l),
(45,700,l),
(285,192,l)
);
},
{
closed = 1;
nodes = (
(266,0,l),
(411,0,l),
(411,349,l),
(266,349,l)
);
},
{
closed = 1;
nodes = (
(85,278,l),
(592,278,l),
(592,374,l),
(85,374,l)
);
},
{
closed = 1;
nodes = (
(85,114,l),
(592,114,l),
(592,210,l),
(85,210,l)
);
}
);
width = 677;
}
);
metricRight = "=Y+10";
unicode = 165;
}
{
color = 6;
glyphname = brokenbar;
layers = (
{
layerId = "70D15AE9-D38C-43AF-B37D-5B18830B62EE";
shapes = (
{
closed = 1;
nodes = (
(212,430,l),
(212,750,l),
(67,750,l),
(67,430,l)
);
},
{
closed = 1;
nodes = (
(67,270,l),
(67,-50,l),
(212,-50,l),
(212,270,l)
);
}
);
width = 279;
},
{
layerId = "B0101270-E9E4-4119-BDB6-6DA172BA76B6";
shapes = (
{
closed = 1;
nodes = (
(145,430,l),
(145,750,l),
(72,750,l),
(72,430,l)
);
},
{
closed = 1;
nodes = (
(72,270,l),
(72,-50,l),
(145,-50,l),
(145,270,l)
);
}
);
width = 217;
}
);
metricRight = "=H";
unicode = 166;
}
{
color = 6;
glyphname = section;
layers = (
{
layerId = "70D15AE9-D38C-43AF-B37D-5B18830B62EE";
shapes = (
{
closed = 1;
nodes = (
(399,172,l),
(465,194,o),
(518,238,o),
(518,308,cs),
(518,529,o),
(189,432,o),
(189,536,cs),
(189,569,o),
(219,594,o),
(276,594,cs),
(323,594,o),
(361,577,o),
(366,524,c),
(509,524,l),
(509,638,o),
(401,716,o),
(280,716,cs),
(143,716,o),
(47,626,o),
(47,536,cs),
(47,312,o),
(376,401,o),
(376,308,cs),
(376,259,o),
(326,250,o),
(285,250,c)
);
},
{
closed = 1;
nodes = (
(170,461,l),
(93,442,o),
(47,387,o),
(47,327,cs),
(47,103,o),
(376,192,o),
(376,99,cs),
(376,57,o),
(338,41,o),
(288,41,cs),
(236,41,o),
(190,59,o),
(184,112,c),
(40,112,l),
(44,2,o),
(151,-81,o),
(283,-81,cs),
(424,-81,o),
(518,-7,o),
(518,99,cs),
(518,320,o),
(189,223,o),
(189,327,cs),
(189,359,o),
(217,383,o),
(271,385,c)
);
}
);
width = 558;
},
{
layerId = "B0101270-E9E4-4119-BDB6-6DA172BA76B6";
shapes = (
{
closed = 1;
nodes = (
(415,156,l),
(472,184,o),
(503,233,o),
(503,298,cs),
(503,519,o),
(124,392,o),
(124,546,cs),
(124,609,o),
(174,654,o),
(271,654,cs),
(358,654,o),
(426,607,o),
(431,524,c),
(494,524,l),
(494,638,o),
(396,716,o),
(275,716,cs),
(138,716,o),
(52,636,o),
(52,546,cs),
(52,322,o),
(431,441,o),
(431,298,cs),
(431,247,o),
(402,214,o),
(352,199,c)
);
},
{
closed = 1;
nodes = (
(129,468,l),
(80,436,o),
(52,388,o),
(52,337,cs),
(52,113,o),
(431,232,o),
(431,89,cs),
(431,17,o),
(373,-19,o),
(283,-19,cs),
(191,-19,o),
(120,29,o),
(114,112,c),
(45,112,l),
(49,2,o),
(146,-81,o),
(278,-81,cs),
(419,-81,o),
(503,-17,o),
(503,89,cs),
(503,310,o),
(124,183,o),
(124,337,cs),
(124,380,o),
(148,415,o),
(194,433,c)
);
}
);
width = 548;
}
);
metricRight = "=s";
unicode = 167;
}
{
color = 6;
glyphname = ordfeminine;
layers = (
{
layerId = "70D15AE9-D38C-43AF-B37D-5B18830B62EE";
shapes = (
{
closed = 1;
nodes = (
(254,370,l),
(347,370,l),
(347,562,l),
(254,562,l)
);
},
{
closed = 1;
nodes = (
(101,716,o),
(45,651,o),
(45,582,c),
(141,582,l),
(141,605,o),
(150,631,o),
(200,631,cs),
(253,631,o),
(254,598,o),
(254,562,c),
(347,562,l),
(347,656,o),
(296,716,o),
(200,716,c)
);
},
{
closed = 1;
nodes = (
(178,578,o),
(57,572,o),
(57,465,cs),
(57,398,o),
(104,360,o),
(170,360,cs),
(232,360,o),
(280,410,o),
(277,471,c),
(254,503,l),
(254,448,o),
(214,445,o),
(188,445,cs),
(172,445,o),
(154,450,o),
(154,468,cs),
(154,497,o),
(189,506,o),
(276,504,c),
(264,582,l)
);
}
);
width = 392;
},
{
layerId = "B0101270-E9E4-4119-BDB6-6DA172BA76B6";
shapes = (
{
closed = 1;
nodes = (
(274,370,l),
(333,370,l),
(333,562,l),
(274,562,l)
);
},
{
closed = 1;
nodes = (
(102,716,o),
(50,651,o),
(50,582,c),
(113,582,l),
(113,624,o),
(136,661,o),
(196,661,cs),
(254,661,o),
(274,623,o),
(274,562,c),
(333,562,l),
(333,656,o),
(287,716,o),
(196,716,c)
);
},
{
closed = 1;
nodes = (
(169,583,o),
(58,569,o),
(58,465,cs),
(58,398,o),
(109,360,o),
(174,360,cs),
(248,360,o),
(285,404,o),
(296,468,c),
(274,503,l),
(274,448,o),
(239,412,o),
(188,412,cs),
(144,412,o),
(120,431,o),
(120,468,cs),
(120,512,o),
(175,538,o),
(291,527,c),
(278,577,l)
);
}
);
width = 383;
}
);
unicode = 170;
}
{
color = 6;
glyphname = registered;
kernLeft = KO_at;
layers = (
{
layerId = "70D15AE9-D38C-43AF-B37D-5B18830B62EE";
shapes = (
{
closed = 1;
nodes = (
(611,-16,o),
(775,148,o),
(775,350,cs),
(775,552,o),
(611,716,o),
(409,716,cs),
(207,716,o),
(43,552,o),
(43,350,cs),
(43,148,o),
(207,-16,o),
(409,-16,cs)
);
},
{
closed = 1;
nodes = (
(269,93,o),
(157,207,o),
(157,350,cs),
(157,493,o),
(269,607,o),
(409,607,cs),
(549,607,o),
(661,493,o),
(661,350,cs),
(661,207,o),
(549,93,o),
(409,93,cs)
);
},
{
closed = 1;
nodes = (
(376,186,l),
(376,302,l),
(398,302,l),
(450,186,l),
(559,186,l),
(479,354,l),
(442,307,l),
(510,316,o),
(555,350,o),
(555,413,cs),
(555,486,o),
(503,520,o),
(408,520,cs),
(276,520,l),
(276,186,l)
);
},
{
closed = 1;
nodes = (
(376,436,l),
(411,436,ls),
(434,436,o),
(452,433,o),
(452,411,cs),
(452,385,o),
(434,386,o),
(411,386,cs),
(376,386,l)
);
}
);
width = 818;
},
{
layerId = "B0101270-E9E4-4119-BDB6-6DA172BA76B6";
shapes = (
{
closed = 1;
nodes = (
(624,-16,o),
(780,142,o),
(780,350,cs),
(780,558,o),
(624,716,o),
(414,716,cs),
(204,716,o),
(48,558,o),
(48,350,cs),
(48,142,o),
(204,-16,o),
(414,-16,cs)
);
},
{
closed = 1;
nodes = (
(249,50,o),
(120,180,o),
(120,350,cs),
(120,520,o),
(249,650,o),
(414,650,cs),
(579,650,o),
(708,520,o),
(708,350,cs),
(708,180,o),
(579,50,o),
(414,50,cs)
);
},
{
closed = 1;
nodes = (
(340,145,l),
(340,289,l),
(430,289,l),
(494,145,l),
(580,145,l),
(484,344,l),
(470,295,l),
(548,308,o),
(589,350,o),
(589,425,cs),
(589,516,o),
(524,561,o),
(403,561,cs),
(265,561,l),
(265,145,l)
);
},
{
closed = 1;
nodes = (
(340,493,l),
(403,493,ls),
(469,493,o),
(509,478,o),
(509,428,cs),
(509,368,o),
(469,357,o),
(403,357,cs),
(340,357,l)
);
}
);
width = 828;
}
);
metricRight = "=O";
unicode = 174;
}
{
color = 6;
glyphname = paragraph;
layers = (
{
layerId = "70D15AE9-D38C-43AF-B37D-5B18830B62EE";
shapes = (
{
closed = 1;
nodes = (
(307,383,l),
(307,644,l),
(307,700,l),
(145,700,o),
(49,650,o),
(49,514,cs),
(49,378,o),
(145,327,o),
(307,327,c)
);
},
{
closed = 1;
nodes = (
(452,-200,l),
(452,700,l),
(307,700,l),
(307,-200,l)
);
},
{
closed = 1;
nodes = (
(655,-200,l),
(655,700,l),
(510,700,l),
(510,-200,l)
);
},
{
closed = 1;
nodes = (
(705,574,l),
(705,700,l),
(377,700,l),
(377,574,l)
);
}
);
width = 772;
},
{
layerId = "B0101270-E9E4-4119-BDB6-6DA172BA76B6";
shapes = (
{
closed = 1;
nodes = (
(283,419,l),
(283,650,l),
(283,700,l),
(139,700,o),
(54,656,o),
(54,535,cs),
(54,414,o),
(139,369,o),
(283,369,c)
);
},
{
closed = 1;
nodes = (
(358,-200,l),
(358,700,l),
(283,700,l),
(283,-200,l)
);
},
{
closed = 1;
nodes = (
(488,-200,l),
(488,700,l),
(413,700,l),
(413,-200,l)
);
},
{
closed = 1;
nodes = (
(538,634,l),
(538,700,l),
(307,700,l),
(307,634,l)
);
}
);
width = 610;
}
);
metricRight = "=|P";
unicode = 182;
}
{
color = 10;
glyphname = guillemetright;
kernLeft = KO_guillemetright;
kernRight = KO_guillemetright;
layers = (
{
layerId = "70D15AE9-D38C-43AF-B37D-5B18830B62EE";
shapes = (
{
pos = (631,0);
ref = guillemetleft;
scale = (-1,1);
}
);
width = 631;
},
{
background = {
shapes = (
{
closed = 1;
nodes = (
(221,505,l),
(364,277,l),
(446,277,l),
(303,505,l)
);
},
{
closed = 1;
nodes = (
(446,277,l),
(364,277,l),
(221,49,l),
(303,49,l)
);
},
{
closed = 1;
nodes = (
(50,505,l),
(193,277,l),
(275,277,l),
(132,505,l)
);
},
{
closed = 1;
nodes = (
(275,277,l),
(193,277,l),
(50,49,l),
(132,49,l)
);
}
);
};
layerId = "B0101270-E9E4-4119-BDB6-6DA172BA76B6";
shapes = (
{
pos = (491,0);
ref = guillemetleft;
scale = (-1,1);
}
);
width = 491;
},
{
associatedMasterId = "B0101270-E9E4-4119-BDB6-6DA172BA76B6";
layerId = "11BBABA0-B014-4691-A767-82610A9F1F3F";
name = "1 Sep 25 at 16:36";
shapes = (
{
closed = 1;
nodes = (
(221,505,l),
(364,277,l),
(446,277,l),
(303,505,l)
);
},
{
closed = 1;
nodes = (
(446,277,l),
(364,277,l),
(221,49,l),
(303,49,l)
);
},
{
closed = 1;
nodes = (
(50,505,l),
(193,277,l),
(275,277,l),
(132,505,l)
);
},
{
closed = 1;
nodes = (
(275,277,l),
(193,277,l),
(50,49,l),
(132,49,l)
);
}
);
width = 491;
}
);
metricLeft = "=|guillemetleft";
metricRight = "=|guillemetleft";
unicode = 187;
}
{
color = 6;
glyphname = questiondown;
kernLeft = KO_questiondown;
kernRight = KO_questiondown;
layers = (
{
layerId = "70D15AE9-D38C-43AF-B37D-5B18830B62EE";
shapes = (
{
closed = 1;
nodes = (
(231,343,l),
(231,253,o),
(45,217,o),
(45,62,cs),
(45,-70,o),
(133,-153,o),
(291,-153,cs),
(418,-153,o),
(536,-56,o),
(536,85,c),
(384,85,l),
(378,19,o),
(348,-21,o),
(286,-21,cs),
(220,-21,o),
(196,15,o),
(196,62,cs),
(196,164,o),
(374,170,o),
(374,343,c)
);
},
{
closed = 1;
nodes = (
(226,563,l),
(226,410,l),
(379,410,l),
(379,563,l)
);
}
);
width = 581;
},
{
layerId = "B0101270-E9E4-4119-BDB6-6DA172BA76B6";
shapes = (
{
closed = 1;
nodes = (
(259,370,l),
(259,214,o),
(50,231,o),
(50,49,cs),
(50,-59,o),
(126,-156,o),
(276,-156,cs),
(406,-156,o),
(511,-59,o),
(511,82,c),
(434,82,l),
(428,-14,o),
(376,-84,o),
(271,-84,cs),
(190,-84,o),
(128,-35,o),
(128,49,cs),
(128,182,o),
(337,172,o),
(337,370,c)
);
},
{
closed = 1;
nodes = (
(253,560,l),
(253,467,l),
(342,467,l),
(342,560,l)
);
}
);
width = 561;
}
);
unicode = 191;
}
{
color = 6;
glyphname = AE;
kernLeft = KO_AE;
kernRight = KO_E;
layers = (
{
layerId = "70D15AE9-D38C-43AF-B37D-5B18830B62EE";
shapes = (
{
closed = 1;
nodes = (
(25,0,l),
(180,0,l),
(491,700,l),
(346,700,l)
);
},
{
closed = 1;
nodes = (
(177,147,l),
(554,147,l),
(554,273,l),
(177,273,l)
);
},
{
closed = 1;
nodes = (
(459,0,l),
(604,0,l),
(604,700,l),
(459,700,l)
);
},
{
closed = 1;
nodes = (
(387,574,l),
(896,574,l),
(896,700,l),
(387,700,l)
);
},
{
closed = 1;
nodes = (
(604,0,l),
(900,0,l),
(900,126,l),
(604,126,l)
);
},
{
closed = 1;
nodes = (
(604,289,l),
(856,289,l),
(856,415,l),
(604,415,l)
);
}
);
width = 957;
},
{
layerId = "B0101270-E9E4-4119-BDB6-6DA172BA76B6";
shapes = (
{
closed = 1;
nodes = (
(40,0,l),
(124,0,l),
(457,700,l),
(381,700,l)
);
},
{
closed = 1;
nodes = (
(179,177,l),
(526,177,l),
(526,243,l),
(179,243,l)
);
},
{
closed = 1;
nodes = (
(457,0,l),
(532,0,l),
(532,700,l),
(457,700,l)
);
},
{
closed = 1;
nodes = (
(407,632,l),
(864,632,l),
(864,700,l),
(407,700,l)
);
},
{
closed = 1;
nodes = (
(504,0,l),
(868,0,l),
(868,68,l),
(504,68,l)
);
},
{
closed = 1;
nodes = (
(481,318,l),
(824,318,l),
(824,386,l),
(481,386,l)
);
}
);
width = 930;
}
);
metricRight = "=E";
unicode = 198;
}
{
color = 6;
glyphname = Eth;
kernLeft = KO_Eth;
kernRight = KO_O;
layers = (
{
layerId = "70D15AE9-D38C-43AF-B37D-5B18830B62EE";
shapes = (
{
closed = 1;
nodes = (
(147,0,l),
(292,0,l),
(292,700,l),
(147,700,l)
);
},
{
closed = 1;
nodes = (
(202,0,l),
(409,0,l),
(409,126,l),
(202,126,l)
);
},
{
closed = 1;
nodes = (
(409,0,l),
(631,0,o),
(754,148,o),
(754,351,cs),
(754,552,o),
(631,700,o),
(409,700,c),
(409,574,l),
(545,574,o),
(603,469,o),
(603,351,cs),
(603,231,o),
(545,126,o),
(409,126,c)
);
},
{
closed = 1;
nodes = (
(202,574,l),
(409,574,l),
(409,700,l),
(202,700,l)
);
},
{
closed = 1;
nodes = (
(57,289,l),
(432,289,l),
(432,415,l),
(57,415,l)
);
}
);
width = 797;
},
{
layerId = "B0101270-E9E4-4119-BDB6-6DA172BA76B6";
shapes = (
{
closed = 1;
nodes = (
(152,0,l),
(227,0,l),
(227,700,l),
(152,700,l)
);
},
{
closed = 1;
nodes = (
(227,0,l),
(364,0,l),
(364,68,l),
(227,68,l)
);
},
{
closed = 1;
nodes = (
(364,0,l),
(586,0,o),
(709,148,o),
(709,351,cs),
(709,552,o),
(586,700,o),
(364,700,c),
(364,632,l),
(545,632,o),
(631,509,o),
(631,351,cs),
(631,191,o),
(545,68,o),
(364,68,c)
);
},
{
closed = 1;
nodes = (
(227,632,l),
(364,632,l),
(364,700,l),
(227,700,l)
);
},
{
closed = 1;
nodes = (
(62,319,l),
(367,319,l),
(367,385,l),
(62,385,l)
);
}
);
width = 757;
}
);
metricRight = "=D";
unicode = 208;
}
{
color = 6;
glyphname = Thorn;
kernLeft = KO_Thorn;
kernRight = KO_Thorn;
layers = (
{
layerId = "70D15AE9-D38C-43AF-B37D-5B18830B62EE";
shapes = (
{
closed = 1;
nodes = (
(57,0,l),
(202,0,l),
(202,700,l),
(57,700,l)
);
},
{
closed = 1;
nodes = (
(112,115,l),
(299,115,l),
(299,241,l),
(112,241,l)
);
},
{
closed = 1;
nodes = (
(299,115,l),
(481,115,o),
(604,179,o),
(604,350,cs),
(604,521,o),
(481,585,o),
(299,585,c),
(299,459,l),
(395,459,o),
(453,440,o),
(453,350,cs),
(453,260,o),
(395,241,o),
(299,241,c)
);
},
{
closed = 1;
nodes = (
(112,459,l),
(299,459,l),
(299,585,l),
(112,585,l)
);
}
);
width = 630;
},
{
layerId = "B0101270-E9E4-4119-BDB6-6DA172BA76B6";
shapes = (
{
closed = 1;
nodes = (
(62,0,l),
(137,0,l),
(137,700,l),
(62,700,l)
);
},
{
closed = 1;
nodes = (
(117,130,l),
(284,130,l),
(284,196,l),
(117,196,l)
);
},
{
closed = 1;
nodes = (
(284,130,l),
(476,130,o),
(589,190,o),
(589,351,cs),
(589,512,o),
(476,570,o),
(284,570,c),
(284,504,l),
(430,504,o),
(511,471,o),
(511,351,cs),
(511,231,o),
(430,196,o),
(284,196,c)
);
},
{
closed = 1;
nodes = (
(117,504,l),
(284,504,l),
(284,570,l),
(117,570,l)
);
}
);
width = 640;
}
);
unicode = 222;
}
{
color = 6;
glyphname = germandbls;
kernLeft = KO_i;
layers = (
{
layerId = "70D15AE9-D38C-43AF-B37D-5B18830B62EE";
shapes = (
{
closed = 1;
nodes = (
(210,0,l),
(210,498,ls),
(210,555,o),
(233,628,o),
(334,628,cs),
(410,628,o),
(460,585,o),
(460,515,cs),
(460,445,o),
(397,434,o),
(331,434,cs),
(299,434,l),
(299,312,l),
(370,312,ls),
(436,312,o),
(499,291,o),
(499,221,cs),
(499,151,o),
(436,122,o),
(370,122,cs),
(299,122,l),
(299,0,l),
(370,0,ls),
(522,0,o),
(645,60,o),
(645,221,cs),
(645,290,o),
(604,353,o),
(545,380,c),
(591,409,o),
(606,467,o),
(606,515,cs),
(606,676,o),
(485,750,o),
(334,750,cs),
(142,750,o),
(67,633,o),
(67,498,cs),
(67,0,l)
);
}
);
width = 695;
},
{
layerId = "B0101270-E9E4-4119-BDB6-6DA172BA76B6";
shapes = (
{
closed = 1;
nodes = (
(145,0,l),
(145,498,ls),
(145,555,o),
(168,682,o),
(309,682,cs),
(415,682,o),
(475,635,o),
(475,535,cs),
(475,414,o),
(382,406,o),
(276,406,cs),
(244,406,l),
(244,340,l),
(315,340,ls),
(421,340,o),
(514,317,o),
(514,207,cs),
(514,87,o),
(411,66,o),
(315,66,cs),
(244,66,l),
(244,0,l),
(315,0,ls),
(467,0,o),
(590,46,o),
(590,207,cs),
(590,310,o),
(523,375,o),
(450,380,c),
(513,400,o),
(551,457,o),
(551,535,cs),
(551,676,o),
(450,750,o),
(309,750,cs),
(127,750,o),
(72,633,o),
(72,498,cs),
(72,0,l)
);
}
);
width = 635;
}
);
metricRight = "=B";
unicode = 223;
}
{
color = 6;
glyphname = ae;
kernLeft = KO_a;
kernRight = KO_e;
layers = (
{
layerId = "70D15AE9-D38C-43AF-B37D-5B18830B62EE";
shapes = (
{
closed = 1;
nodes = (
(825,-16,o),
(922,63,o),
(946,178,c),
(795,178,l),
(780,140,o),
(743,112,o),
(689,112,cs),
(586,112,o),
(549,186,o),
(549,279,cs),
(549,373,o),
(586,448,o),
(689,448,cs),
(777,448,o),
(810,379,o),
(801,321,c),
(847,348,l),
(484,348,l),
(484,232,l),
(944,232,l),
(975,451,o),
(841,576,o),
(689,576,cs),
(516,576,o),
(403,443,o),
(403,279,cs),
(403,106,o),
(516,-16,o),
(689,-16,cs)
);
},
{
closed = 1;
nodes = (
(375,-16,o),
(463,41,o),
(495,141,c),
(404,221,l),
(404,130,o),
(338,114,o),
(286,114,cs),
(250,114,o),
(218,127,o),
(218,163,cs),
(218,216,o),
(282,238,o),
(439,231,c),
(418,352,l),
(269,349,o),
(69,338,o),
(69,159,cs),
(69,47,o),
(148,-16,o),
(258,-16,cs)
);
},
{
closed = 1;
nodes = (
(547,320,l),
(547,467,o),
(463,576,o),
(305,576,c),
(142,576,o),
(50,467,o),
(50,353,c),
(199,353,l),
(199,399,o),
(219,446,o),
(305,446,cs),
(395,446,o),
(404,391,o),
(404,320,c)
);
},
{
closed = 1;
nodes = (
(547,208,l),
(547,320,l),
(404,320,l),
(404,208,l)
);
}
);
width = 988;
},
{
layerId = "B0101270-E9E4-4119-BDB6-6DA172BA76B6";
shapes = (
{
closed = 1;
nodes = (
(861,-16,o),
(950,62,o),
(979,177,c),
(902,177,l),
(880,107,o),
(827,52,o),
(725,52,cs),
(592,52,o),
(515,146,o),
(515,279,cs),
(515,413,o),
(592,508,o),
(725,508,cs),
(842,508,o),
(913,417,o),
(914,285,c),
(957,321,l),
(481,321,l),
(481,255,l),
(981,255,l),
(995,458,o),
(877,576,o),
(725,576,cs),
(552,576,o),
(439,453,o),
(439,279,cs),
(439,106,o),
(552,-16,o),
(725,-16,cs)
);
},
{
closed = 1;
nodes = (
(395,-16,o),
(463,42,o),
(493,154,c),
(439,221,l),
(439,130,o),
(386,44,o),
(281,44,cs),
(186,44,o),
(140,86,o),
(140,163,cs),
(140,251,o),
(251,306,o),
(464,281,c),
(443,342,l),
(264,359,o),
(64,338,o),
(64,159,cs),
(64,47,o),
(152,-16,o),
(262,-16,cs)
);
},
{
closed = 1;
nodes = (
(512,320,l),
(512,477,o),
(438,576,o),
(290,576,c),
(137,576,o),
(55,467,o),
(55,353,c),
(134,353,l),
(134,439,o),
(184,508,o),
(290,508,cs),
(390,508,o),
(439,441,o),
(439,320,c)
);
},
{
closed = 1;
nodes = (
(512,195,l),
(512,320,l),
(439,320,l),
(439,195,l)
);
}
);
width = 1027;
}
);
metricRight = "=e";
unicode = 230;
}
{
color = 6;
glyphname = eth;
kernLeft = KO_o;
kernRight = KO_eth;
layers = (
{
layerId = "70D15AE9-D38C-43AF-B37D-5B18830B62EE";
shapes = (
{
closed = 1;
nodes = (
(452,-16,o),
(565,98,o),
(565,284,cs),
(565,534,o),
(463,750,o),
(190,750,c),
(190,625,l),
(326,625,o),
(402,563,o),
(424,406,c),
(502,401,l),
(460,498,o),
(378,536,o),
(292,536,cs),
(143,536,o),
(40,418,o),
(40,264,cs),
(40,101,o),
(143,-16,o),
(292,-16,cs)
);
},
{
closed = 1;
nodes = (
(248,112,o),
(186,151,o),
(186,264,cs),
(186,368,o),
(248,408,o),
(307,408,cs),
(366,408,o),
(422,358,o),
(422,264,cs),
(422,151,o),
(366,112,o),
(307,112,cs)
);
},
{
closed = 1;
nodes = (
(296,542,l),
(433,719,l),
(349,777,l),
(212,600,l)
);
}
);
width = 628;
},
{
layerId = "B0101270-E9E4-4119-BDB6-6DA172BA76B6";
shapes = (
{
closed = 1;
nodes = (
(457,-16,o),
(570,98,o),
(570,284,cs),
(570,534,o),
(468,750,o),
(195,750,c),
(195,685,l),
(381,685,o),
(472,573,o),
(494,406,c),
(507,401,l),
(465,498,o),
(383,546,o),
(297,546,cs),
(148,546,o),
(45,428,o),
(45,264,cs),
(45,101,o),
(148,-16,o),
(297,-16,cs)
);
},
{
closed = 1;
nodes = (
(195,52,o),
(121,131,o),
(121,264,cs),
(121,398,o),
(195,478,o),
(302,478,cs),
(431,478,o),
(497,388,o),
(497,264,cs),
(497,141,o),
(431,52,o),
(302,52,cs)
);
},
{
closed = 1;
nodes = (
(322,571,l),
(480,729,l),
(440,768,l),
(282,610,l)
);
}
);
width = 638;
}
);
metricRight = "=d";
unicode = 240;
}
{
color = 6;
glyphname = divide;
kernLeft = KO_plus;
kernRight = KO_plus;
layers = (
{
layerId = "70D15AE9-D38C-43AF-B37D-5B18830B62EE";
shapes = (
{
closed = 1;
nodes = (
(56,309,l),
(546,309,l),
(546,431,l),
(56,431,l)
);
},
{
closed = 1;
nodes = (
(345,481,o),
(382,517,o),
(382,562,cs),
(382,607,o),
(345,644,o),
(300,644,cs),
(255,644,o),
(219,607,o),
(219,562,cs),
(219,517,o),
(255,481,o),
(300,481,cs)
);
},
{
closed = 1;
nodes = (
(345,96,o),
(382,132,o),
(382,177,cs),
(382,222,o),
(345,259,o),
(300,259,cs),
(255,259,o),
(219,222,o),
(219,177,cs),
(219,132,o),
(255,96,o),
(300,96,cs)
);
}
);
width = 601;
},
{
layerId = "B0101270-E9E4-4119-BDB6-6DA172BA76B6";
shapes = (
{
closed = 1;
nodes = (
(61,337,l),
(551,337,l),
(551,403,l),
(61,403,l)
);
},
{
closed = 1;
nodes = (
(333,481,o),
(357,504,o),
(357,532,cs),
(357,560,o),
(333,584,o),
(305,584,cs),
(277,584,o),
(254,560,o),
(254,532,cs),
(254,504,o),
(277,481,o),
(305,481,c)
);
},
{
closed = 1;
nodes = (
(334,156,o),
(357,179,o),
(357,207,cs),
(357,236,o),
(334,259,o),
(305,259,cs),
(277,259,o),
(254,236,o),
(254,207,cs),
(254,179,o),
(277,156,o),
(305,156,cs)
);
}
);
width = 611;
}
);
metricRight = "=hyphen";
unicode = 247;
}
{
color = 6;
glyphname = thorn;
kernLeft = KO_l;
kernRight = KO_p;
layers = (
{
layerId = "70D15AE9-D38C-43AF-B37D-5B18830B62EE";
shapes = (
{
closed = 1;
nodes = (
(525,-16,o),
(618,106,o),
(618,279,cs),
(618,453,o),
(525,576,o),
(366,576,cs),
(291,576,o),
(240,548,o),
(206,497,c),
(206,61,l),
(238,13,o),
(288,-16,o),
(366,-16,cs)
);
},
{
closed = 1;
nodes = (
(206,-200,l),
(206,750,l),
(63,750,l),
(63,-200,l)
);
},
{
closed = 1;
nodes = (
(249,112,o),
(206,186,o),
(206,279,cs),
(206,373,o),
(249,448,o),
(341,448,cs),
(428,448,o),
(472,373,o),
(472,279,cs),
(472,186,o),
(428,112,o),
(341,112,cs)
);
}
);
width = 658;
},
{
layerId = "B0101270-E9E4-4119-BDB6-6DA172BA76B6";
shapes = (
{
closed = 1;
nodes = (
(490,-16,o),
(593,106,o),
(593,279,cs),
(593,453,o),
(490,576,o),
(341,576,cs),
(244,576,o),
(177,527,o),
(141,450,c),
(141,108,l),
(175,34,o),
(241,-16,o),
(341,-16,cs)
);
},
{
closed = 1;
nodes = (
(141,-200,l),
(141,750,l),
(68,750,l),
(68,-200,l)
);
},
{
closed = 1;
nodes = (
(207,52,o),
(141,146,o),
(141,279,cs),
(141,413,o),
(207,508,o),
(336,508,cs),
(443,508,o),
(517,423,o),
(517,279,cs),
(517,136,o),
(443,52,o),
(336,52,cs)
);
}
);
width = 638;
}
);
metricRight = "=p";
unicode = 254;
}
{
color = 6;
glyphname = Hbar;
kernLeft = KO_Hbar;
kernRight = KO_Hbar;
layers = (
{
layerId = "70D15AE9-D38C-43AF-B37D-5B18830B62EE";
shapes = (
{
closed = 1;
nodes = (
(152,0,l),
(297,0,l),
(297,700,l),
(152,700,l)
);
},
{
closed = 1;
nodes = (
(576,0,l),
(721,0,l),
(721,700,l),
(576,700,l)
);
},
{
closed = 1;
nodes = (
(207,289,l),
(699,289,l),
(699,415,l),
(207,415,l)
);
},
{
closed = 1;
nodes = (
(62,494,l),
(811,494,l),
(811,620,l),
(62,620,l)
);
}
);
width = 873;
},
{
layerId = "B0101270-E9E4-4119-BDB6-6DA172BA76B6";
shapes = (
{
closed = 1;
nodes = (
(157,0,l),
(232,0,l),
(232,700,l),
(157,700,l)
);
},
{
closed = 1;
nodes = (
(631,0,l),
(706,0,l),
(706,700,l),
(631,700,l)
);
},
{
closed = 1;
nodes = (
(192,319,l),
(684,319,l),
(684,385,l),
(192,385,l)
);
},
{
closed = 1;
nodes = (
(67,524,l),
(796,524,l),
(796,590,l),
(67,590,l)
);
}
);
width = 863;
}
);
metricRight = "=H-5";
unicode = 294;
}
{
color = 6;
glyphname = hbar;
kernLeft = KO_hbar;
kernRight = KO_n;
layers = (
{
layerId = "70D15AE9-D38C-43AF-B37D-5B18830B62EE";
shapes = (
{
closed = 1;
nodes = (
(644,0,l),
(644,345,ls),
(644,516,o),
(566,576,o),
(458,576,cs),
(295,576,o),
(265,459,o),
(265,389,c),
(281,274,l),
(281,407,o),
(358,452,o),
(418,452,cs),
(494,452,o),
(501,398,o),
(501,332,cs),
(501,0,l)
);
},
{
closed = 1;
nodes = (
(281,0,l),
(281,750,l),
(138,750,l),
(138,0,l)
);
},
{
closed = 1;
nodes = (
(402,604,l),
(402,700,l),
(58,700,l),
(58,604,l)
);
}
);
width = 703;
},
{
layerId = "B0101270-E9E4-4119-BDB6-6DA172BA76B6";
shapes = (
{
closed = 1;
nodes = (
(599,0,l),
(599,345,ls),
(599,516,o),
(516,576,o),
(408,576,cs),
(252,576,o),
(200,459,o),
(200,389,c),
(216,284,l),
(216,417,o),
(293,512,o),
(393,512,cs),
(489,512,o),
(526,448,o),
(526,332,cs),
(526,0,l)
);
},
{
closed = 1;
nodes = (
(216,0,l),
(216,750,l),
(143,750,l),
(143,0,l)
);
},
{
closed = 1;
nodes = (
(366,624,l),
(366,680,l),
(63,680,l),
(63,624,l)
);
}
);
width = 663;
}
);
metricRight = "=h";
unicode = 295;
}
{
color = 6;
glyphname = Lslash;
kernLeft = KO_Lslash;
kernRight = KO_Lslash;
layers = (
{
layerId = "70D15AE9-D38C-43AF-B37D-5B18830B62EE";
shapes = (
{
closed = 1;
nodes = (
(144,0,l),
(289,0,l),
(289,700,l),
(144,700,l)
);
},
{
closed = 1;
nodes = (
(289,0,l),
(575,0,l),
(575,126,l),
(289,126,l)
);
},
{
closed = 1;
nodes = (
(62,275,l),
(398,395,l),
(398,515,l),
(62,395,l)
);
}
);
width = 610;
},
{
layerId = "B0101270-E9E4-4119-BDB6-6DA172BA76B6";
shapes = (
{
closed = 1;
nodes = (
(161,0,l),
(236,0,l),
(236,700,l),
(161,700,l)
);
},
{
closed = 1;
nodes = (
(189,0,l),
(572,0,l),
(572,66,l),
(189,66,l)
);
},
{
closed = 1;
nodes = (
(67,297,l),
(373,397,l),
(373,465,l),
(67,365,l)
);
}
);
width = 612;
}
);
metricRight = "=L";
unicode = 321;
}
{
color = 6;
glyphname = lslash;
kernLeft = KO_lslash;
kernRight = KO_lslash;
layers = (
{
layerId = "70D15AE9-D38C-43AF-B37D-5B18830B62EE";
shapes = (
{
closed = 1;
nodes = (
(148,0,l),
(291,0,l),
(291,750,l),
(148,750,l)
);
},
{
closed = 1;
nodes = (
(58,275,l),
(381,395,l),
(381,515,l),
(58,395,l)
);
}
);
width = 439;
},
{
layerId = "B0101270-E9E4-4119-BDB6-6DA172BA76B6";
shapes = (
{
closed = 1;
nodes = (
(153,0,l),
(226,0,l),
(226,750,l),
(153,750,l)
);
},
{
closed = 1;
nodes = (
(63,309,l),
(316,389,l),
(316,457,l),
(63,377,l)
);
}
);
width = 379;
}
);
metricRight = "=l-5";
unicode = 322;
}
{
color = 6;
glyphname = oe;
kernLeft = KO_o;
kernRight = KO_e;
layers = (
{
layerId = "70D15AE9-D38C-43AF-B37D-5B18830B62EE";
shapes = (
{
closed = 1;
nodes = (
(888,-16,o),
(985,63,o),
(1009,178,c),
(858,178,l),
(843,140,o),
(806,112,o),
(752,112,cs),
(649,112,o),
(612,186,o),
(612,279,cs),
(612,373,o),
(649,448,o),
(752,448,cs),
(840,448,o),
(873,379,o),
(864,321,c),
(910,348,l),
(547,348,l),
(547,232,l),
(1007,232,l),
(1038,451,o),
(904,576,o),
(752,576,cs),
(579,576,o),
(486,453,o),
(486,279,cs),
(486,106,o),
(579,-16,o),
(752,-16,cs)
);
},
{
closed = 1;
nodes = (
(499,-16,o),
(592,106,o),
(592,279,cs),
(592,453,o),
(499,576,o),
(326,576,cs),
(153,576,o),
(40,453,o),
(40,279,cs),
(40,106,o),
(153,-16,o),
(326,-16,cs)
);
},
{
closed = 1;
nodes = (
(229,112,o),
(186,186,o),
(186,279,cs),
(186,373,o),
(229,448,o),
(326,448,cs),
(423,448,o),
(466,373,o),
(466,279,cs),
(466,186,o),
(423,112,o),
(326,112,cs)
);
}
);
width = 1051;
},
{
layerId = "B0101270-E9E4-4119-BDB6-6DA172BA76B6";
shapes = (
{
closed = 1;
nodes = (
(963,-16,o),
(1052,62,o),
(1081,177,c),
(1004,177,l),
(982,107,o),
(929,52,o),
(827,52,cs),
(694,52,o),
(617,146,o),
(617,279,cs),
(617,413,o),
(694,508,o),
(827,508,cs),
(944,508,o),
(1015,417,o),
(1016,285,c),
(1059,321,l),
(583,321,l),
(583,255,l),
(1083,255,l),
(1097,458,o),
(979,576,o),
(827,576,cs),
(654,576,o),
(541,453,o),
(541,279,cs),
(541,106,o),
(654,-16,o),
(827,-16,cs)
);
},
{
closed = 1;
nodes = (
(504,-16,o),
(617,106,o),
(617,279,cs),
(617,453,o),
(504,576,o),
(331,576,cs),
(158,576,o),
(45,453,o),
(45,279,cs),
(45,106,o),
(158,-16,o),
(331,-16,cs)
);
},
{
closed = 1;
nodes = (
(209,52,o),
(121,136,o),
(121,279,cs),
(121,423,o),
(209,508,o),
(331,508,cs),
(453,508,o),
(541,423,o),
(541,279,cs),
(541,136,o),
(453,52,o),
(331,52,cs)
);
}
);
width = 1129;
}
);
metricRight = "=e";
unicode = 339;
}
{
color = 6;
glyphname = schwa;
kernLeft = KO_d;
kernRight = KO_o;
layers = (
{
layerId = "70D15AE9-D38C-43AF-B37D-5B18830B62EE";
shapes = (
{
closed = 1;
nodes = (
(472,-16,o),
(585,107,o),
(585,281,cs),
(585,454,o),
(472,576,o),
(299,576,cs),
(163,576,o),
(66,497,o),
(42,382,c),
(193,382,l),
(208,420,o),
(245,448,o),
(299,448,cs),
(402,448,o),
(439,374,o),
(439,281,cs),
(439,187,o),
(402,112,o),
(299,112,cs),
(211,112,o),
(178,181,o),
(187,239,c),
(141,212,l),
(504,212,l),
(504,328,l),
(44,328,l),
(13,109,o),
(147,-16,o),
(299,-16,cs)
);
}
);
width = 625;
},
{
layerId = "B0101270-E9E4-4119-BDB6-6DA172BA76B6";
shapes = (
{
closed = 1;
nodes = (
(475,-16,o),
(588,107,o),
(588,281,cs),
(588,454,o),
(475,576,o),
(302,576,cs),
(166,576,o),
(77,498,o),
(48,383,c),
(125,383,l),
(147,453,o),
(200,508,o),
(302,508,cs),
(435,508,o),
(512,414,o),
(512,281,cs),
(512,147,o),
(435,52,o),
(302,52,cs),
(185,52,o),
(114,143,o),
(113,275,c),
(70,239,l),
(546,239,l),
(546,305,l),
(46,305,l),
(32,102,o),
(150,-16,o),
(302,-16,cs)
);
}
);
width = 633;
}
);
metricRight = "=|e";
unicode = 601;
}
{
color = 6;
glyphname = gravecomb;
layers = (
{
anchors = (
{
name = _top;
pos = (185,560);
},
{
name = top;
pos = (130,750);
}
);
layerId = "70D15AE9-D38C-43AF-B37D-5B18830B62EE";
shapes = (
{
closed = 1;
nodes = (
(238,630,l),
(178,770,l),
(18,770,l),
(121,630,l)
);
}
);
width = 260;
},
{
anchors = (
{
name = _top;
pos = (121,560);
},
{
name = top;
pos = (122,750);
}
);
layerId = "B0101270-E9E4-4119-BDB6-6DA172BA76B6";
shapes = (
{
closed = 1;
nodes = (
(149,630,l),
(99,760,l),
(-1,760,l),
(92,630,l)
);
}
);
width = 210;
}
);
unicode = 768;
}
{
color = 6;
glyphname = acutecomb;
layers = (
{
anchors = (
{
name = _top;
pos = (69,560);
},
{
name = top;
pos = (130,750);
}
);
layerId = "70D15AE9-D38C-43AF-B37D-5B18830B62EE";
shapes = (
{
closed = 1;
nodes = (
(75,770,l),
(15,630,l),
(132,630,l),
(235,770,l)
);
}
);
width = 260;
},
{
anchors = (
{
name = _top;
pos = (90,560);
},
{
name = top;
pos = (90,750);
}
);
layerId = "B0101270-E9E4-4119-BDB6-6DA172BA76B6";
shapes = (
{
closed = 1;
nodes = (
(112,760,l),
(62,630,l),
(119,630,l),
(212,760,l)
);
}
);
width = 210;
}
);
unicode = 769;
}
{
color = 6;
glyphname = tildecomb;
layers = (
{
anchors = (
{
name = _top;
pos = (225,560);
},
{
name = top;
pos = (225,759);
}
);
layerId = "70D15AE9-D38C-43AF-B37D-5B18830B62EE";
shapes = (
{
attr = {
fillColor = (217,217,217,255);
};
closed = 1;
nodes = (
(211,669,o),
(238,625,o),
(301,625,cs),
(343,625,o),
(406,659,o),
(406,766,c),
(301,766,l),
(301,743,o),
(294,733,o),
(277,733,cs),
(240,733,o),
(212,775,o),
(148,775,cs),
(105,775,o),
(43,742,o),
(43,636,c),
(147,636,l),
(147,658,o),
(156,669,o),
(174,669,cs)
);
}
);
width = 451;
},
{
anchors = (
{
name = _top;
pos = (159,560);
},
{
name = top;
pos = (159,756);
}
);
layerId = "B0101270-E9E4-4119-BDB6-6DA172BA76B6";
shapes = (
{
attr = {
fillColor = (208,255);
};
closed = 1;
nodes = (
(140,683,o),
(171,632,o),
(220,632,cs),
(257,632,o),
(300,659,o),
(300,731,c),
(245,731,l),
(245,708,o),
(237,691,o),
(216,691,cs),
(181,691,o),
(160,740,o),
(103,740,cs),
(65,740,o),
(20,715,o),
(20,643,c),
(76,643,l),
(76,666,o),
(86,683,o),
(106,683,cs)
);
}
);
width = 320;
}
);
unicode = 771;
}
{
color = 6;
glyphname = macroncomb;
layers = (
{
anchors = (
{
name = _top;
pos = (198,560);
},
{
name = top;
pos = (198,750);
}
);
layerId = "70D15AE9-D38C-43AF-B37D-5B18830B62EE";
shapes = (
{
closed = 1;
nodes = (
(46,644,l),
(351,644,l),
(351,756,l),
(46,756,l)
);
}
);
width = 396;
},
{
anchors = (
{
name = _top;
pos = (194,560);
},
{
name = top;
pos = (194,750);
}
);
layerId = "B0101270-E9E4-4119-BDB6-6DA172BA76B6";
shapes = (
{
closed = 1;
nodes = (
(56,667,l),
(331,667,l),
(331,729,l),
(56,729,l)
);
}
);
width = 387;
}
);
unicode = 772;
}
{
color = 6;
glyphname = brevecomb;
layers = (
{
anchors = (
{
name = _top;
pos = (210,560);
},
{
name = top;
pos = (210,750);
}
);
layerId = "70D15AE9-D38C-43AF-B37D-5B18830B62EE";
shapes = (
{
closed = 1;
nodes = (
(264,770,l),
(261,738,o),
(240,721,o),
(210,721,cs),
(180,721,o),
(160,738,o),
(156,770,c),
(40,770,l),
(49,675,o),
(120,620,o),
(210,620,cs),
(300,620,o),
(371,675,o),
(380,770,c)
);
}
);
width = 420;
},
{
anchors = (
{
name = _top;
pos = (158,560);
},
{
name = top;
pos = (158,750);
}
);
layerId = "B0101270-E9E4-4119-BDB6-6DA172BA76B6";
shapes = (
{
closed = 1;
nodes = (
(225,754,l),
(220,714,o),
(197,697,o),
(159,697,cs),
(120,697,o),
(98,714,o),
(93,754,c),
(20,754,l),
(28,678,o),
(84,636,o),
(159,636,cs),
(233,636,o),
(289,678,o),
(297,754,c)
);
}
);
width = 316;
}
);
unicode = 774;
}
{
color = 6;
glyphname = dotaccentcomb;
layers = (
{
anchors = (
{
name = _top;
pos = (95,560);
},
{
name = top;
pos = (95,750);
}
);
layerId = "70D15AE9-D38C-43AF-B37D-5B18830B62EE";
shapes = (
{
closed = 1;
nodes = (
(28,616,l),
(162,616,l),
(162,750,l),
(28,750,l)
);
}
);
width = 190;
},
{
anchors = (
{
name = _top;
pos = (101,560);
},
{
name = top;
pos = (101,750);
}
);
layerId = "B0101270-E9E4-4119-BDB6-6DA172BA76B6";
shapes = (
{
closed = 1;
nodes = (
(55,651,l),
(147,651,l),
(147,743,l),
(55,743,l)
);
}
);
width = 202;
}
);
unicode = 775;
}
{
color = 6;
glyphname = dieresiscomb;
layers = (
{
anchors = (
{
name = _top;
pos = (198,560);
},
{
name = top;
pos = (198,750);
}
);
layerId = "70D15AE9-D38C-43AF-B37D-5B18830B62EE";
shapes = (
{
closed = 1;
nodes = (
(20,633,l),
(165,633,l),
(165,767,l),
(20,767,l)
);
},
{
closed = 1;
nodes = (
(231,633,l),
(376,633,l),
(376,767,l),
(231,767,l)
);
}
);
width = 396;
},
{
anchors = (
{
name = _top;
pos = (182,560);
},
{
name = top;
pos = (182,750);
}
);
layerId = "B0101270-E9E4-4119-BDB6-6DA172BA76B6";
shapes = (
{
closed = 1;
nodes = (
(55,652,l),
(146,652,l),
(146,746,l),
(55,746,l)
);
},
{
closed = 1;
nodes = (
(218,652,l),
(309,652,l),
(309,746,l),
(218,746,l)
);
}
);
width = 364;
}
);
unicode = 776;
}
{
color = 6;
glyphname = ringcomb;
layers = (
{
anchors = (
{
name = _top;
pos = (132,560);
},
{
name = top;
pos = (132,766);
}
);
layerId = "70D15AE9-D38C-43AF-B37D-5B18830B62EE";
shapes = (
{
closed = 1;
nodes = (
(188,604,o),
(234,650,o),
(234,706,cs),
(234,762,o),
(188,808,o),
(132,808,cs),
(76,808,o),
(30,762,o),
(30,706,cs),
(30,650,o),
(76,604,o),
(132,604,cs)
);
},
{
closed = 1;
nodes = (
(118,681,o),
(107,692,o),
(107,706,cs),
(107,720,o),
(118,731,o),
(132,731,cs),
(146,731,o),
(157,720,o),
(157,706,cs),
(157,692,o),
(146,681,o),
(132,681,cs)
);
}
);
width = 264;
},
{
anchors = (
{
name = _top;
pos = (122,560);
},
{
name = top;
pos = (122,766);
}
);
layerId = "B0101270-E9E4-4119-BDB6-6DA172BA76B6";
shapes = (
{
closed = 1;
nodes = (
(170,627,o),
(210,666,o),
(210,714,cs),
(210,761,o),
(170,800,o),
(122,800,cs),
(74,800,o),
(34,761,o),
(34,714,cs),
(34,666,o),
(74,627,o),
(122,627,cs)
);
},
{
closed = 1;
nodes = (
(100,673,o),
(84,692,o),
(84,714,cs),
(84,735,o),
(100,754,o),
(122,754,cs),
(144,754,o),
(160,735,o),
(160,714,cs),
(160,692,o),
(144,673,o),
(122,673,cs)
);
}
);
width = 244;
},
{
anchors = (
{
name = _top;
pos = (122,560);
},
{
name = top;
pos = (122,766);
}
);
associatedMasterId = "B0101270-E9E4-4119-BDB6-6DA172BA76B6";
layerId = "770A3C23-B4D5-4599-BAA0-E595CEA29E5F";
name = "2 Sep 25 at 17:59";
shapes = (
{
closed = 1;
nodes = (
(162,621,o),
(194,654,o),
(194,694,cs),
(194,733,o),
(162,766,o),
(122,766,cs),
(82,766,o),
(50,733,o),
(50,694,cs),
(50,654,o),
(82,621,o),
(122,621,cs)
);
},
{
closed = 1;
nodes = (
(105,663,o),
(92,677,o),
(92,694,cs),
(92,710,o),
(105,724,o),
(122,724,cs),
(139,724,o),
(152,710,o),
(152,694,cs),
(152,677,o),
(139,663,o),
(122,663,cs)
);
}
);
width = 244;
}
);
unicode = 778;
}
{
color = 6;
glyphname = commaaccentcomb;
layers = (
{
anchors = (
{
name = _bottom;
pos = (120,0);
},
{
name = bottom;
pos = (120,-273);
}
);
layerId = "70D15AE9-D38C-43AF-B37D-5B18830B62EE";
shapes = (
{
closed = 1;
nodes = (
(145,-273,o),
(189,-241,o),
(189,-177,cs),
(189,-42,l),
(50,-42,l),
(50,-177,l),
(121,-177,l),
(121,-202,o),
(112,-217,o),
(85,-217,c),
(85,-273,l)
);
}
);
width = 243;
},
{
anchors = (
{
name = _bottom;
pos = (98,0);
},
{
name = bottom;
pos = (98,-211);
}
);
layerId = "B0101270-E9E4-4119-BDB6-6DA172BA76B6";
shapes = (
{
closed = 1;
nodes = (
(116,-211,o),
(145,-187,o),
(145,-140,cs),
(145,-47,l),
(50,-47,l),
(50,-140,l),
(99,-140,l),
(99,-159,o),
(92,-170,o),
(72,-170,c),
(72,-211,l)
);
}
);
width = 195;
}
);
unicode = 806;
}
{
color = 6;
glyphname = ogonekcomb;
layers = (
{
anchors = (
{
name = _ogonek;
pos = (204,0);
}
);
layerId = "70D15AE9-D38C-43AF-B37D-5B18830B62EE";
shapes = (
{
closed = 1;
nodes = (
(158,35,l),
(76,3,o),
(31,-35,o),
(31,-96,cs),
(31,-161,o),
(94,-200,o),
(179,-200,cs),
(229,-200,l),
(229,-72,l),
(184,-72,ls),
(152,-72,o),
(141,-61,o),
(141,-45,cs),
(141,-24,o),
(161,-9,o),
(204,0,c)
);
}
);
width = 254;
},
{
anchors = (
{
name = _ogonek;
pos = (209,0);
}
);
layerId = "B0101270-E9E4-4119-BDB6-6DA172BA76B6";
shapes = (
{
closed = 1;
nodes = (
(163,35,l),
(93,0,o),
(50,-30,o),
(50,-104,cs),
(50,-160,o),
(99,-200,o),
(184,-200,c),
(214,-200,l),
(214,-136,l),
(186,-136,l),
(157,-136,o),
(110,-129,o),
(110,-84,cs),
(110,-35,o),
(171,-13,o),
(209,0,c)
);
}
);
width = 264;
},
{
anchors = (
{
name = _ogonek;
pos = (204,0);
}
);
associatedMasterId = "70D15AE9-D38C-43AF-B37D-5B18830B62EE";
layerId = "9405A322-7E35-4FD7-B684-7C473AD6224A";
name = "3 Sep 25 at 15:20";
shapes = (
{
closed = 1;
nodes = (
(158,35,l),
(84,-2,o),
(45,-35,o),
(45,-109,cs),
(45,-161,o),
(94,-200,o),
(179,-200,cs),
(209,-200,l),
(209,-101,l),
(181,-101,ls),
(152,-101,o),
(135,-87,o),
(135,-64,cs),
(135,-35,o),
(166,-13,o),
(204,0,c)
);
}
);
width = 254;
}
);
unicode = 808;
}
{
color = 6;
glyphname = Germandbls;
kernLeft = KO_H;
kernRight = KO_B;
layers = (
{
background = {
shapes = (
{
closed = 1;
nodes = (
(365,0,ls),
(517,0,o),
(640,50,o),
(640,211,cs),
(640,302,o),
(564,398,o),
(439,398,c),
(564,574,l),
(564,700,l),
(212,700,l),
(122,700,l),
(67,700,l),
(67,0,l),
(212,0,l),
(212,574,l),
(386,574,l),
(268,390,l),
(268,290,l),
(365,290,ls),
(431,290,o),
(489,281,o),
(489,211,cs),
(489,141,o),
(431,126,o),
(365,126,cs),
(258,126,l),
(258,0,l)
);
}
);
};
layerId = "70D15AE9-D38C-43AF-B37D-5B18830B62EE";
shapes = (
{
closed = 1;
nodes = (
(365,0,ls),
(517,0,o),
(640,50,o),
(640,211,cs),
(640,311,o),
(586,398,o),
(420,395,c),
(445,361,l),
(594,574,l),
(594,700,l),
(67,700,l),
(67,0,l),
(212,0,l),
(212,574,l),
(461,574,l),
(440,612,l),
(288,390,l),
(288,290,l),
(365,290,ls),
(431,290,o),
(489,281,o),
(489,211,cs),
(489,141,o),
(431,126,o),
(365,126,cs),
(258,126,l),
(258,0,l)
);
}
);
width = 690;
},
{
layerId = "B0101270-E9E4-4119-BDB6-6DA172BA76B6";
shapes = (
{
closed = 1;
nodes = (
(352,0,ls),
(504,0,o),
(634,39,o),
(634,203,cs),
(634,339,o),
(550,409,o),
(349,395,c),
(369,360,l),
(591,634,l),
(591,700,l),
(72,700,l),
(72,0,l),
(147,0,l),
(147,634,l),
(542,634,l),
(525,669,l),
(306,396,l),
(306,330,l),
(346,330,ls),
(500,330,o),
(556,296,o),
(556,199,cs),
(556,99,o),
(477,66,o),
(357,66,cs),
(272,66,l),
(272,0,l)
);
}
);
width = 679;
}
);
metricRight = "=B";
unicode = 7838;
}
{
color = 6;
glyphname = endash;
kernLeft = KO_endash;
kernRight = KO_endash;
layers = (
{
layerId = "70D15AE9-D38C-43AF-B37D-5B18830B62EE";
shapes = (
{
closed = 1;
nodes = (
(56,259,l),
(546,259,l),
(546,381,l),
(56,381,l)
);
}
);
width = 601;
},
{
layerId = "B0101270-E9E4-4119-BDB6-6DA172BA76B6";
shapes = (
{
closed = 1;
nodes = (
(61,289,l),
(551,289,l),
(551,351,l),
(61,351,l)
);
}
);
width = 611;
}
);
metricRight = "=hyphen";
unicode = 8211;
}
{
color = 6;
glyphname = emdash;
kernLeft = KO_endash;
kernRight = KO_endash;
layers = (
{
layerId = "70D15AE9-D38C-43AF-B37D-5B18830B62EE";
shapes = (
{
closed = 1;
nodes = (
(56,259,l),
(694,259,l),
(694,381,l),
(56,381,l)
);
}
);
width = 749;
},
{
layerId = "B0101270-E9E4-4119-BDB6-6DA172BA76B6";
shapes = (
{
closed = 1;
nodes = (
(60,289,l),
(698,289,l),
(698,351,l),
(60,351,l)
);
}
);
width = 758;
}
);
metricRight = "=hyphen";
unicode = 8212;
}
{
color = 6;
glyphname = dagger;
kernLeft = KO_dagger;
layers = (
{
layerId = "70D15AE9-D38C-43AF-B37D-5B18830B62EE";
shapes = (
{
closed = 1;
nodes = (
(150,-50,l),
(295,-50,l),
(295,750,l),
(150,750,l)
);
},
{
closed = 1;
nodes = (
(15,446,l),
(430,446,l),
(430,572,l),
(15,572,l)
);
}
);
width = 445;
},
{
layerId = "B0101270-E9E4-4119-BDB6-6DA172BA76B6";
shapes = (
{
closed = 1;
nodes = (
(190,-50,l),
(263,-50,l),
(263,750,l),
(190,750,l)
);
},
{
closed = 1;
nodes = (
(35,479,l),
(418,479,l),
(418,545,l),
(35,545,l)
);
}
);
width = 453;
}
);
unicode = 8224;
}
{
color = 6;
glyphname = daggerdbl;
layers = (
{
layerId = "70D15AE9-D38C-43AF-B37D-5B18830B62EE";
shapes = (
{
closed = 1;
nodes = (
(150,-50,l),
(295,-50,l),
(295,750,l),
(150,750,l)
);
},
{
closed = 1;
nodes = (
(15,446,l),
(430,446,l),
(430,572,l),
(15,572,l)
);
},
{
closed = 1;
nodes = (
(15,146,l),
(430,146,l),
(430,272,l),
(15,272,l)
);
}
);
width = 445;
},
{
layerId = "B0101270-E9E4-4119-BDB6-6DA172BA76B6";
shapes = (
{
closed = 1;
nodes = (
(190,-50,l),
(263,-50,l),
(263,750,l),
(190,750,l)
);
},
{
closed = 1;
nodes = (
(35,469,l),
(418,469,l),
(418,535,l),
(35,535,l)
);
},
{
closed = 1;
nodes = (
(35,185,l),
(418,185,l),
(418,251,l),
(35,251,l)
);
}
);
width = 453;
}
);
metricLeft = "=dagger";
metricRight = "=dagger";
unicode = 8225;
}
{
color = 6;
glyphname = guilsinglleft;
kernLeft = KO_guillemetleft;
kernRight = KO_guillemetleft;
layers = (
{
layerId = "70D15AE9-D38C-43AF-B37D-5B18830B62EE";
shapes = (
{
closed = 1;
nodes = (
(40,277,l),
(183,49,l),
(345,49,l),
(202,277,l),
(345,505,l),
(183,505,l)
);
}
);
width = 390;
},
{
layerId = "B0101270-E9E4-4119-BDB6-6DA172BA76B6";
shapes = (
{
closed = 1;
nodes = (
(45,277,l),
(188,49,l),
(270,49,l),
(127,277,l),
(270,505,l),
(188,505,l)
);
}
);
width = 320;
}
);
metricLeft = "=guillemetleft";
metricRight = "=guillemetleft";
unicode = 8249;
}
{
color = 6;
glyphname = fraction;
layers = (
{
layerId = "70D15AE9-D38C-43AF-B37D-5B18830B62EE";
shapes = (
{
closed = 1;
nodes = (
(-170,0,l),
(-71,0,l),
(319,700,l),
(220,700,l)
);
}
);
width = 112;
},
{
layerId = "B0101270-E9E4-4119-BDB6-6DA172BA76B6";
shapes = (
{
closed = 1;
nodes = (
(-165,0,l),
(-97,0,l),
(293,700,l),
(225,700,l)
);
}
);
width = 122;
}
);
unicode = 8260;
}
{
color = 6;
glyphname = zeroinferior;
layers = (
{
layerId = "70D15AE9-D38C-43AF-B37D-5B18830B62EE";
shapes = (
{
closed = 1;
nodes = (
(292,-8,o),
(338,75,o),
(338,175,cs),
(338,275,o),
(292,358,o),
(191,358,cs),
(90,358,o),
(43,276,o),
(43,175,cs),
(43,74,o),
(90,-8,o),
(191,-8,cs)
);
},
{
closed = 1;
nodes = (
(159,81,o),
(151,117,o),
(151,175,cs),
(151,233,o),
(159,269,o),
(191,269,cs),
(223,269,o),
(231,232,o),
(231,175,cs),
(231,118,o),
(223,81,o),
(191,81,cs)
);
}
);
userData = {
RMXScaler = {
height = 50;
weight = -270;
width = 50;
};
};
width = 381;
},
{
layerId = "B0101270-E9E4-4119-BDB6-6DA172BA76B6";
shapes = (
{
closed = 1;
nodes = (
(297,-8,o),
(343,75,o),
(343,175,cs),
(343,275,o),
(297,358,o),
(196,358,cs),
(95,358,o),
(48,276,o),
(48,175,cs),
(48,74,o),
(95,-8,o),
(196,-8,cs)
);
},
{
closed = 1;
nodes = (
(138,50,o),
(113,109,o),
(113,175,cs),
(113,241,o),
(138,300,o),
(196,300,cs),
(254,300,o),
(279,240,o),
(279,175,cs),
(279,110,o),
(254,50,o),
(196,50,cs)
);
}
);
userData = {
RMXScaler = {
height = 50;
weight = 10;
width = 50;
};
};
width = 391;
}
);
metricRight = "=O";
unicode = 8320;
userData = {
KernOnSpecialSpacing = {
L = NoKerning;
R = NoKerning;
};
RMXScaler = {
source = zero;
};
};
}
{
color = 6;
glyphname = twoinferior;
layers = (
{
layerId = "70D15AE9-D38C-43AF-B37D-5B18830B62EE";
shapes = (
{
closed = 1;
nodes = (
(138,0,l),
(124,130,o),
(300,112,o),
(300,243,cs),
(300,306,o),
(251,358,o),
(165,358,cs),
(89,358,o),
(27,310,o),
(27,232,c),
(128,232,l),
(130,256,o),
(138,276,o),
(166,276,cs),
(187,276,o),
(199,265,o),
(199,243,cs),
(199,171,o),
(15,165,o),
(27,0,c)
);
},
{
closed = 1;
nodes = (
(27,0,l),
(301,0,l),
(301,80,l),
(68,80,l)
);
}
);
userData = {
RMXScaler = {
height = 50;
weight = -270;
width = 50;
};
};
width = 329;
},
{
layerId = "B0101270-E9E4-4119-BDB6-6DA172BA76B6";
shapes = (
{
closed = 1;
nodes = (
(107,0,l),
(107,131,o),
(299,126,o),
(299,249,cs),
(299,306,o),
(263,358,o),
(176,358,cs),
(94,358,o),
(37,310,o),
(37,239,c),
(102,239,l),
(105,277,o),
(126,303,o),
(172,303,cs),
(210,303,o),
(234,286,o),
(234,249,cs),
(234,170,o),
(34,155,o),
(32,0,c)
);
},
{
closed = 1;
nodes = (
(32,0,l),
(300,0,l),
(300,55,l),
(73,55,l)
);
}
);
userData = {
RMXScaler = {
height = 50;
weight = 10;
width = 50;
};
};
width = 334;
}
);
unicode = 8322;
userData = {
KernOnSpecialSpacing = {
L = NoKerning;
R = NoKerning;
};
RMXScaler = {
source = two;
};
};
}
{
color = 6;
glyphname = fiveinferior;
layers = (
{
layerId = "70D15AE9-D38C-43AF-B37D-5B18830B62EE";
shapes = (
{
closed = 1;
nodes = (
(117,235,o),
(76,172,o),
(68,143,c),
(125,143,l),
(140,150,o),
(156,154,o),
(174,154,cs),
(204,154,o),
(215,136,o),
(215,116,cs),
(215,97,o),
(203,79,o),
(177,79,cs),
(151,79,o),
(138,93,o),
(135,111,c),
(34,111,l),
(34,41,o),
(97,-8,o),
(176,-8,cs),
(267,-8,o),
(313,45,o),
(313,117,cs),
(313,189,o),
(271,235,o),
(199,235,cs)
);
},
{
closed = 1;
nodes = (
(123,143,l),
(162,350,l),
(68,350,l),
(31,143,l)
);
},
{
closed = 1;
nodes = (
(94,270,l),
(285,270,l),
(285,350,l),
(94,350,l)
);
}
);
userData = {
RMXScaler = {
height = 50;
weight = -270;
width = 50;
};
};
width = 333;
},
{
layerId = "B0101270-E9E4-4119-BDB6-6DA172BA76B6";
shapes = (
{
closed = 1;
nodes = (
(107,235,o),
(71,172,o),
(63,143,c),
(100,143,l),
(112,162,o),
(138,178,o),
(174,178,cs),
(219,178,o),
(241,152,o),
(241,115,cs),
(241,80,o),
(219,48,o),
(175,48,cs),
(130,48,o),
(103,73,o),
(100,111,c),
(35,111,l),
(35,41,o),
(98,-8,o),
(172,-8,cs),
(257,-8,o),
(306,45,o),
(306,113,cs),
(306,184,o),
(262,235,o),
(184,235,cs)
);
},
{
closed = 1;
nodes = (
(98,143,l),
(137,350,l),
(74,350,l),
(37,143,l)
);
},
{
closed = 1;
nodes = (
(89,295,l),
(276,295,l),
(276,350,l),
(89,350,l)
);
}
);
userData = {
RMXScaler = {
height = 50;
weight = 10;
width = 50;
};
};
width = 336;
}
);
unicode = 8325;
userData = {
KernOnSpecialSpacing = {
L = NoKerning;
R = NoKerning;
};
RMXScaler = {
source = five;
};
};
}
{
color = 6;
glyphname = eightinferior;
layers = (
{
layerId = "70D15AE9-D38C-43AF-B37D-5B18830B62EE";
shapes = (
{
closed = 1;
nodes = (
(261,-8,o),
(310,39,o),
(310,95,cs),
(310,130,o),
(294,162,o),
(253,176,c),
(291,190,o),
(307,220,o),
(307,255,cs),
(307,311,o),
(255,358,o),
(176,358,cs),
(98,358,o),
(46,311,o),
(46,255,cs),
(46,220,o),
(62,190,o),
(99,176,c),
(59,162,o),
(43,130,o),
(43,95,cs),
(43,39,o),
(92,-8,o),
(176,-8,cs)
);
},
{
closed = 1;
nodes = (
(152,77,o),
(140,91,o),
(140,110,cs),
(140,130,o),
(152,143,o),
(176,143,cs),
(200,143,o),
(212,130,o),
(212,110,cs),
(212,91,o),
(200,77,o),
(176,77,cs)
);
},
{
closed = 1;
nodes = (
(153,214,o),
(142,227,o),
(142,245,cs),
(142,263,o),
(155,275,o),
(176,275,cs),
(198,275,o),
(210,262,o),
(210,245,cs),
(210,226,o),
(198,214,o),
(176,214,cs)
);
}
);
userData = {
RMXScaler = {
height = 50;
weight = -270;
width = 50;
};
};
width = 353;
},
{
layerId = "B0101270-E9E4-4119-BDB6-6DA172BA76B6";
shapes = (
{
closed = 1;
nodes = (
(266,-8,o),
(315,39,o),
(315,95,cs),
(315,130,o),
(299,162,o),
(258,176,c),
(296,190,o),
(312,220,o),
(312,255,cs),
(312,311,o),
(260,358,o),
(181,358,cs),
(103,358,o),
(51,311,o),
(51,255,cs),
(51,220,o),
(67,190,o),
(104,176,c),
(64,162,o),
(48,130,o),
(48,95,cs),
(48,39,o),
(97,-8,o),
(181,-8,cs)
);
},
{
closed = 1;
nodes = (
(133,50,o),
(113,74,o),
(113,101,cs),
(113,131,o),
(133,152,o),
(181,152,cs),
(230,152,o),
(249,131,o),
(249,101,cs),
(249,75,o),
(231,50,o),
(181,50,cs)
);
},
{
closed = 1;
nodes = (
(136,203,o),
(115,224,o),
(115,254,cs),
(115,280,o),
(141,300,o),
(181,300,c),
(223,300,o),
(248,279,o),
(248,254,cs),
(248,224,o),
(226,203,o),
(181,203,cs)
);
}
);
userData = {
RMXScaler = {
height = 50;
weight = 10;
width = 50;
};
};
width = 363;
}
);
metricRight = "=O";
unicode = 8328;
userData = {
KernOnSpecialSpacing = {
L = NoKerning;
R = NoKerning;
};
RMXScaler = {
source = eight;
};
};
}
{
color = 6;
glyphname = nineinferior;
layers = (
{
layerId = "70D15AE9-D38C-43AF-B37D-5B18830B62EE";
shapes = (
{
closed = 1;
nodes = (
(44,99,l),
(56,35,o),
(98,-8,o),
(172,-8,cs),
(262,-8,o),
(317,62,o),
(317,185,cs),
(317,316,o),
(251,358,o),
(174,358,cs),
(87,358,o),
(42,305,o),
(42,233,cs),
(42,165,o),
(85,115,o),
(166,115,cs),
(202,115,o),
(232,128,o),
(253,153,c),
(222,154,l),
(226,101,o),
(201,73,o),
(175,73,cs),
(155,73,o),
(147,85,o),
(145,99,c)
);
},
{
closed = 1;
nodes = (
(211,213,o),
(197,199,o),
(175,199,cs),
(152,199,o),
(138,213,o),
(138,236,cs),
(138,258,o),
(152,273,o),
(175,273,cs),
(197,273,o),
(211,258,o),
(211,235,cs)
);
}
);
userData = {
RMXScaler = {
height = 50;
weight = -270;
width = 50;
};
};
width = 360;
},
{
layerId = "B0101270-E9E4-4119-BDB6-6DA172BA76B6";
shapes = (
{
closed = 1;
nodes = (
(57,99,l),
(69,34,o),
(111,-8,o),
(180,-8,cs),
(272,-8,o),
(321,62,o),
(321,184,cs),
(321,316,o),
(257,358,o),
(182,358,cs),
(98,358,o),
(48,305,o),
(48,236,cs),
(48,168,o),
(98,115,o),
(179,115,cs),
(228,115,o),
(264,140,o),
(278,168,c),
(261,171,l),
(259,80,o),
(221,50,o),
(183,50,cs),
(140,50,o),
(128,77,o),
(124,99,c)
);
},
{
closed = 1;
nodes = (
(250,197,o),
(224,172,o),
(182,172,cs),
(139,172,o),
(113,197,o),
(113,235,cs),
(113,272,o),
(139,300,o),
(182,300,cs),
(225,300,o),
(250,272,o),
(250,234,cs)
);
}
);
userData = {
RMXScaler = {
height = 50;
weight = 10;
width = 50;
};
};
width = 369;
}
);
metricRight = "=O";
unicode = 8329;
userData = {
KernOnSpecialSpacing = {
L = NoKerning;
R = NoKerning;
};
RMXScaler = {
source = nine;
};
};
}
{
color = 6;
glyphname = won;
layers = (
{
layerId = "70D15AE9-D38C-43AF-B37D-5B18830B62EE";
shapes = (
{
closed = 1;
nodes = (
(384,0,l),
(213,700,l),
(70,700,l),
(251,0,l)
);
},
{
closed = 1;
nodes = (
(627,700,l),
(484,700,l),
(313,0,l),
(446,0,l)
);
},
{
closed = 1;
nodes = (
(813,0,l),
(642,700,l),
(499,700,l),
(680,0,l)
);
},
{
closed = 1;
nodes = (
(1056,700,l),
(913,700,l),
(742,0,l),
(875,0,l)
);
},
{
closed = 1;
nodes = (
(45,388,l),
(1081,388,l),
(1081,484,l),
(45,484,l)
);
},
{
closed = 1;
nodes = (
(45,224,l),
(1081,224,l),
(1081,320,l),
(45,320,l)
);
}
);
width = 1126;
},
{
layerId = "B0101270-E9E4-4119-BDB6-6DA172BA76B6";
shapes = (
{
closed = 1;
nodes = (
(324,0,l),
(153,700,l),
(75,700,l),
(256,0,l)
);
},
{
closed = 1;
nodes = (
(533,700,l),
(455,700,l),
(284,0,l),
(352,0,l)
);
},
{
closed = 1;
nodes = (
(723,0,l),
(552,700,l),
(474,700,l),
(655,0,l)
);
},
{
closed = 1;
nodes = (
(932,700,l),
(854,700,l),
(683,0,l),
(751,0,l)
);
},
{
closed = 1;
nodes = (
(50,418,l),
(957,418,l),
(957,484,l),
(50,484,l)
);
},
{
closed = 1;
nodes = (
(50,224,l),
(957,224,l),
(957,290,l),
(50,290,l)
);
}
);
width = 1007;
}
);
metricRight = "=W+10";
unicode = 8361;
}
{
color = 6;
glyphname = rupeeIndian;
layers = (
{
layerId = "70D15AE9-D38C-43AF-B37D-5B18830B62EE";
shapes = (
{
closed = 1;
nodes = (
(388,240,o),
(511,299,o),
(511,470,cs),
(511,641,o),
(338,650,o),
(206,650,c),
(206,574,l),
(302,574,o),
(360,550,o),
(360,470,cs),
(360,390,o),
(302,366,o),
(206,366,c),
(206,240,l)
);
},
{
closed = 1;
nodes = (
(206,240,l),
(206,366,l),
(69,366,l),
(69,240,l)
);
},
{
closed = 1;
nodes = (
(516,0,l),
(221,282,l),
(69,282,l),
(69,240,l),
(311,0,l)
);
},
{
closed = 1;
nodes = (
(581,407,l),
(581,533,l),
(49,533,l),
(49,407,l)
);
},
{
closed = 1;
nodes = (
(581,574,l),
(581,700,l),
(49,700,l),
(49,574,l)
);
}
);
width = 648;
},
{
layerId = "B0101270-E9E4-4119-BDB6-6DA172BA76B6";
shapes = (
{
closed = 1;
nodes = (
(343,260,o),
(456,320,o),
(456,481,cs),
(456,642,o),
(343,680,o),
(151,680,c),
(151,634,l),
(297,634,o),
(378,601,o),
(378,481,cs),
(378,361,o),
(297,326,o),
(151,326,c),
(151,260,l)
);
},
{
closed = 1;
nodes = (
(151,260,l),
(151,326,l),
(54,326,l),
(54,260,l)
);
},
{
closed = 1;
nodes = (
(461,0,l),
(129,281,l),
(54,276,l),
(54,260,l),
(350,0,l)
);
},
{
closed = 1;
nodes = (
(526,447,l),
(526,513,l),
(54,513,l),
(54,447,l)
);
},
{
closed = 1;
nodes = (
(526,634,l),
(526,700,l),
(54,700,l),
(54,634,l)
);
}
);
width = 598;
}
);
metricRight = "=H";
unicode = 8377;
}
{
color = 6;
glyphname = ruble;
layers = (
{
layerId = "70D15AE9-D38C-43AF-B37D-5B18830B62EE";
shapes = (
{
closed = 1;
nodes = (
(152,0,l),
(297,0,l),
(297,700,l),
(152,700,l)
);
},
{
closed = 1;
nodes = (
(62,230,l),
(394,230,l),
(394,356,l),
(62,356,l)
);
},
{
closed = 1;
nodes = (
(394,230,l),
(576,230,o),
(699,294,o),
(699,465,cs),
(699,636,o),
(576,700,o),
(394,700,c),
(394,574,l),
(490,574,o),
(548,555,o),
(548,465,cs),
(548,375,o),
(490,356,o),
(394,356,c)
);
},
{
closed = 1;
nodes = (
(207,574,l),
(394,574,l),
(394,700,l),
(207,700,l)
);
},
{
closed = 1;
nodes = (
(62,69,l),
(394,69,l),
(394,195,l),
(62,195,l)
);
}
);
width = 748;
},
{
layerId = "B0101270-E9E4-4119-BDB6-6DA172BA76B6";
shapes = (
{
closed = 1;
nodes = (
(157,0,l),
(232,0,l),
(232,700,l),
(157,700,l)
);
},
{
closed = 1;
nodes = (
(67,260,l),
(379,260,l),
(379,326,l),
(67,326,l)
);
},
{
closed = 1;
nodes = (
(379,260,l),
(571,260,o),
(684,320,o),
(684,481,cs),
(684,642,o),
(571,700,o),
(379,700,c),
(379,634,l),
(525,634,o),
(606,601,o),
(606,481,cs),
(606,361,o),
(525,326,o),
(379,326,c)
);
},
{
closed = 1;
nodes = (
(212,634,l),
(379,634,l),
(379,700,l),
(212,700,l)
);
},
{
closed = 1;
nodes = (
(67,124,l),
(379,124,l),
(379,190,l),
(67,190,l)
);
}
);
width = 738;
}
);
metricRight = "=P";
unicode = 8381;
}
{
color = 6;
glyphname = leftRightArrow;
layers = (
{
layerId = "70D15AE9-D38C-43AF-B37D-5B18830B62EE";
shapes = (
{
closed = 1;
nodes = (
(403,164,l),
(298,269,l),
(613,269,l),
(508,164,l),
(593,78,l),
(856,342,l),
(593,605,l),
(508,519,l),
(613,414,l),
(298,414,l),
(403,519,l),
(318,605,l),
(55,342,l),
(318,78,l)
);
}
);
width = 911;
},
{
layerId = "B0101270-E9E4-4119-BDB6-6DA172BA76B6";
shapes = (
{
closed = 1;
nodes = (
(369,126,l),
(189,306,l),
(732,306,l),
(552,126,l),
(598,80,l),
(861,343,l),
(598,606,l),
(552,560,l),
(732,380,l),
(189,380,l),
(369,560,l),
(323,606,l),
(60,343,l),
(323,80,l)
);
}
);
width = 921;
}
);
unicode = 8596;
}
{
color = 6;
glyphname = upDownArrow;
layers = (
{
layerId = "70D15AE9-D38C-43AF-B37D-5B18830B62EE";
shapes = (
{
closed = 1;
nodes = (
(581,247,l),
(495,333,l),
(390,228,l),
(390,472,l),
(495,367,l),
(581,453,l),
(318,716,l),
(55,453,l),
(141,367,l),
(246,472,l),
(246,228,l),
(141,333,l),
(55,247,l),
(318,-16,l)
);
}
);
width = 636;
},
{
layerId = "B0101270-E9E4-4119-BDB6-6DA172BA76B6";
shapes = (
{
closed = 1;
nodes = (
(586,247,l),
(540,293,l),
(360,113,l),
(360,587,l),
(540,407,l),
(586,453,l),
(323,716,l),
(60,453,l),
(106,407,l),
(286,587,l),
(286,113,l),
(106,293,l),
(60,247,l),
(323,-16,l)
);
}
);
width = 646;
}
);
unicode = 8597;
}
{
color = 6;
glyphname = partialdiff;
layers = (
{
layerId = "70D15AE9-D38C-43AF-B37D-5B18830B62EE";
shapes = (
{
closed = 1;
nodes = (
(452,-16,o),
(565,98,o),
(565,284,cs),
(565,534,o),
(463,750,o),
(190,750,c),
(190,625,l),
(326,625,o),
(402,563,o),
(424,406,c),
(502,401,l),
(460,498,o),
(378,546,o),
(292,546,cs),
(143,546,o),
(40,428,o),
(40,264,cs),
(40,101,o),
(143,-16,o),
(292,-16,cs)
);
},
{
closed = 1;
nodes = (
(248,112,o),
(186,151,o),
(186,264,cs),
(186,378,o),
(248,418,o),
(307,418,cs),
(366,418,o),
(422,368,o),
(422,264,cs),
(422,151,o),
(366,112,o),
(307,112,cs)
);
}
);
width = 628;
},
{
layerId = "B0101270-E9E4-4119-BDB6-6DA172BA76B6";
shapes = (
{
closed = 1;
nodes = (
(466,-16,o),
(579,98,o),
(579,284,cs),
(579,534,o),
(477,750,o),
(204,750,c),
(204,685,l),
(381,681,o),
(471,573,o),
(500,406,c),
(516,401,l),
(474,498,o),
(392,546,o),
(306,546,cs),
(157,546,o),
(54,428,o),
(54,264,cs),
(54,101,o),
(157,-16,o),
(306,-16,cs)
);
},
{
closed = 1;
nodes = (
(204,52,o),
(130,131,o),
(130,264,cs),
(130,398,o),
(204,478,o),
(311,478,cs),
(440,478,o),
(506,388,o),
(506,264,cs),
(506,141,o),
(440,52,o),
(311,52,cs)
);
}
);
width = 647;
}
);
metricRight = "=d";
unicode = 8706;
}
{
color = 6;
glyphname = product;
layers = (
{
layerId = "70D15AE9-D38C-43AF-B37D-5B18830B62EE";
shapes = (
{
closed = 1;
nodes = (
(135,0,l),
(280,0,l),
(280,700,l),
(135,700,l)
);
},
{
closed = 1;
nodes = (
(459,0,l),
(604,0,l),
(604,700,l),
(459,700,l)
);
},
{
closed = 1;
nodes = (
(35,574,l),
(704,574,l),
(704,700,l),
(35,700,l)
);
}
);
width = 739;
},
{
layerId = "B0101270-E9E4-4119-BDB6-6DA172BA76B6";
shapes = (
{
closed = 1;
nodes = (
(170,0,l),
(245,0,l),
(245,700,l),
(170,700,l)
);
},
{
closed = 1;
nodes = (
(424,0,l),
(499,0,l),
(499,700,l),
(424,700,l)
);
},
{
closed = 1;
nodes = (
(40,634,l),
(629,634,l),
(629,700,l),
(40,700,l)
);
}
);
width = 669;
}
);
unicode = 8719;
}
{
color = 6;
glyphname = summation;
layers = (
{
layerId = "70D15AE9-D38C-43AF-B37D-5B18830B62EE";
shapes = (
{
closed = 1;
nodes = (
(67,523,l),
(292,310,l),
(292,390,l),
(67,176,l),
(67,0,l),
(558,0,l),
(558,126,l),
(149,126,l),
(167,95,l),
(387,313,l),
(387,386,l),
(166,605,l),
(148,574,l),
(554,574,l),
(554,700,l),
(67,700,l)
);
}
);
width = 615;
},
{
layerId = "B0101270-E9E4-4119-BDB6-6DA172BA76B6";
shapes = (
{
closed = 1;
nodes = (
(72,623,l),
(287,310,l),
(287,390,l),
(72,76,l),
(72,0,l),
(563,0,l),
(563,68,l),
(94,68,l),
(112,15,l),
(332,333,l),
(332,366,l),
(111,685,l),
(93,632,l),
(559,632,l),
(559,700,l),
(72,700,l)
);
}
);
width = 625;
}
);
metricRight = "=E";
unicode = 8721;
}
{
color = 6;
glyphname = minus;
kernLeft = KO_plus;
kernRight = KO_minus;
layers = (
{
layerId = "70D15AE9-D38C-43AF-B37D-5B18830B62EE";
shapes = (
{
closed = 1;
nodes = (
(56,309,l),
(546,309,l),
(546,431,l),
(56,431,l)
);
}
);
width = 601;
},
{
layerId = "B0101270-E9E4-4119-BDB6-6DA172BA76B6";
shapes = (
{
closed = 1;
nodes = (
(60,337,l),
(510,337,l),
(510,403,l),
(60,403,l)
);
}
);
width = 570;
}
);
metricRight = "=hyphen";
unicode = 8722;
}
{
color = 6;
glyphname = radical;
kernRight = KO_radical;
layers = (
{
layerId = "70D15AE9-D38C-43AF-B37D-5B18830B62EE";
shapes = (
{
closed = 1;
nodes = (
(203,0,l),
(336,0,l),
(186,560,l),
(33,560,l)
);
},
{
closed = 1;
nodes = (
(396,700,l),
(263,0,l),
(396,0,l),
(549,700,l)
);
},
{
closed = 1;
nodes = (
(444,574,l),
(683,574,l),
(683,700,l),
(444,700,l)
);
}
);
width = 713;
},
{
layerId = "B0101270-E9E4-4119-BDB6-6DA172BA76B6";
shapes = (
{
closed = 1;
nodes = (
(208,0,l),
(273,0,l),
(118,560,l),
(38,560,l)
);
},
{
closed = 1;
nodes = (
(368,700,l),
(235,0,l),
(298,0,l),
(451,700,l)
);
},
{
closed = 1;
nodes = (
(386,632,l),
(585,632,l),
(585,700,l),
(386,700,l)
);
}
);
width = 618;
}
);
unicode = 8730;
}
{
color = 6;
glyphname = saltillo;
layers = (
{
layerId = "70D15AE9-D38C-43AF-B37D-5B18830B62EE";
shapes = (
{
closed = 1;
nodes = (
(85,438,l),
(210,438,l),
(230,716,l),
(65,716,l)
);
}
);
width = 295;
},
{
layerId = "B0101270-E9E4-4119-BDB6-6DA172BA76B6";
shapes = (
{
closed = 1;
nodes = (
(90,438,l),
(135,438,l),
(155,716,l),
(70,716,l)
);
}
);
width = 225;
}
);
unicode = 42892;
}
{
color = 6;
glyphname = P.ss01;
kernLeft = KO_R.ss01;
kernRight = KO_P;
layers = (
{
anchors = (
{
name = bottom;
pos = (335,0);
},
{
name = top;
pos = (335,700);
}
);
layerId = "70D15AE9-D38C-43AF-B37D-5B18830B62EE";
shapes = (
{
closed = 1;
nodes = (
(212,230,l),
(309,230,l),
(309,356,l),
(212,356,l)
);
},
{
closed = 1;
nodes = (
(309,230,l),
(491,230,o),
(614,294,o),
(614,465,cs),
(614,636,o),
(491,700,o),
(309,700,c),
(309,574,l),
(405,574,o),
(463,555,o),
(463,465,cs),
(463,375,o),
(405,356,o),
(309,356,c)
);
},
{
closed = 1;
nodes = (
(212,574,l),
(309,574,l),
(309,700,l),
(212,700,l)
);
},
{
closed = 1;
nodes = (
(67,634,l),
(67,0,l),
(212,0,l),
(212,634,l)
);
}
);
width = 663;
},
{
anchors = (
{
name = bottom;
pos = (330,0);
},
{
name = top;
pos = (330,700);
}
);
layerId = "B0101270-E9E4-4119-BDB6-6DA172BA76B6";
shapes = (
{
closed = 1;
nodes = (
(147,260,l),
(294,260,l),
(294,326,l),
(147,326,l)
);
},
{
closed = 1;
nodes = (
(294,260,l),
(486,260,o),
(599,320,o),
(599,481,cs),
(599,642,o),
(486,700,o),
(294,700,c),
(294,634,l),
(440,634,o),
(521,601,o),
(521,481,cs),
(521,361,o),
(440,326,o),
(294,326,c)
);
},
{
closed = 1;
nodes = (
(147,634,l),
(294,634,l),
(294,700,l),
(147,700,l)
);
},
{
closed = 1;
nodes = (
(72,634,l),
(72,0,l),
(147,0,l),
(147,634,l)
);
}
);
width = 653;
}
);
metricLeft = "=P";
metricRight = "=P";
}
{
color = 6;
glyphname = R.ss01;
kernLeft = KO_R.ss01;
kernRight = KO_R;
layers = (
{
anchors = (
{
name = bottom;
pos = (332,0);
},
{
name = top;
pos = (332,700);
}
);
layerId = "70D15AE9-D38C-43AF-B37D-5B18830B62EE";
shapes = (
{
closed = 1;
nodes = (
(212,240,l),
(309,240,l),
(309,366,l),
(212,366,l)
);
},
{
closed = 1;
nodes = (
(309,240,l),
(491,240,o),
(614,299,o),
(614,470,cs),
(614,641,o),
(491,700,o),
(309,700,c),
(309,574,l),
(405,574,o),
(463,550,o),
(463,470,cs),
(463,390,o),
(405,366,o),
(309,366,c)
);
},
{
closed = 1;
nodes = (
(212,574,l),
(309,574,l),
(309,700,l),
(212,700,l)
);
},
{
closed = 1;
nodes = (
(454,0,l),
(619,0,l),
(462,323,l),
(317,323,l)
);
},
{
closed = 1;
nodes = (
(67,634,l),
(67,0,l),
(212,0,l),
(212,634,l)
);
}
);
width = 672;
},
{
anchors = (
{
name = bottom;
pos = (335,0);
},
{
name = top;
pos = (335,700);
}
);
layerId = "B0101270-E9E4-4119-BDB6-6DA172BA76B6";
shapes = (
{
closed = 1;
nodes = (
(147,270,l),
(314,270,l),
(314,336,l),
(147,336,l)
);
},
{
closed = 1;
nodes = (
(314,270,l),
(506,270,o),
(619,325,o),
(619,486,cs),
(619,647,o),
(506,700,o),
(314,700,c),
(314,634,l),
(460,634,o),
(541,606,o),
(541,486,cs),
(541,366,o),
(460,336,o),
(314,336,c)
);
},
{
closed = 1;
nodes = (
(147,634,l),
(314,634,l),
(314,700,l),
(147,700,l)
);
},
{
closed = 1;
nodes = (
(519,0,l),
(604,0,l),
(447,323,l),
(372,323,l)
);
},
{
closed = 1;
nodes = (
(72,634,l),
(72,0,l),
(147,0,l),
(147,634,l)
);
}
);
width = 677;
}
);
metricLeft = "=R";
metricRight = "=R";
}
{
color = 6;
glyphname = .notdef;
layers = (
{
layerId = "70D15AE9-D38C-43AF-B37D-5B18830B62EE";
shapes = (
{
closed = 1;
nodes = (
(765,0,l),
(765,700,l),
(65,700,l),
(65,0,l)
);
},
{
closed = 1;
nodes = (
(208,268,l),
(623,268,l),
(623,205,l),
(208,205,l)
);
},
{
attr = {
fillColor = (238,238,238,255);
};
closed = 1;
nodes = (
(144,480,l),
(365,480,l),
(365,348,l),
(144,348,l)
);
},
{
attr = {
fillColor = (32,28,29,255);
};
closed = 1;
nodes = (
(345,375,l),
(345,460,l),
(229,460,l),
(229,375,l)
);
},
{
attr = {
fillColor = (238,238,238,255);
};
closed = 1;
nodes = (
(466,480,l),
(687,480,l),
(687,348,l),
(466,348,l)
);
},
{
attr = {
fillColor = (32,28,29,255);
};
closed = 1;
nodes = (
(667,375,l),
(667,460,l),
(551,460,l),
(551,375,l)
);
}
);
width = 830;
},
{
layerId = "B0101270-E9E4-4119-BDB6-6DA172BA76B6";
shapes = (
{
closed = 1;
nodes = (
(770,0,l),
(770,700,l),
(70,700,l),
(70,0,l)
);
},
{
closed = 1;
nodes = (
(213,268,l),
(628,268,l),
(628,205,l),
(213,205,l)
);
},
{
attr = {
fillColor = (234,255);
};
closed = 1;
nodes = (
(149,480,l),
(370,480,l),
(370,348,l),
(149,348,l)
);
},
{
attr = {
fillColor = (32,28,29,255);
};
closed = 1;
nodes = (
(285,368,l),
(285,453,l),
(169,453,l),
(169,368,l)
);
},
{
attr = {
fillColor = (234,255);
};
closed = 1;
nodes = (
(471,480,l),
(692,480,l),
(692,348,l),
(471,348,l)
);
},
{
attr = {
fillColor = (32,28,29,255);
};
closed = 1;
nodes = (
(607,368,l),
(607,453,l),
(491,453,l),
(491,368,l)
);
}
);
width = 840;
}
);
}
{
color = 6;
glyphname = dieresiscomb.narrow;
layers = (
{
anchors = (
{
name = _top;
pos = (198,560);
},
{
name = top;
pos = (198,750);
}
);
layerId = "70D15AE9-D38C-43AF-B37D-5B18830B62EE";
shapes = (
{
closed = 1;
nodes = (
(50,630,l),
(180,630,l),
(180,760,l),
(50,760,l)
);
},
{
closed = 1;
nodes = (
(215,630,l),
(345,630,l),
(345,760,l),
(215,760,l)
);
}
);
width = 395;
},
{
anchors = (
{
name = _top;
pos = (167,560);
},
{
name = top;
pos = (167,750);
}
);
layerId = "B0101270-E9E4-4119-BDB6-6DA172BA76B6";
shapes = (
{
closed = 1;
nodes = (
(60,653,l),
(141,653,l),
(141,737,l),
(60,737,l)
);
},
{
closed = 1;
nodes = (
(193,653,l),
(274,653,l),
(274,737,l),
(193,737,l)
);
}
);
width = 334;
}
);
}
{
color = 6;
glyphname = e.ss01;
kernLeft = KO_e.ss01;
kernRight = KO_e;
layers = (
{
anchors = (
{
name = bottom;
pos = (313,0);
},
{
name = ogonek;
pos = (426,0);
},
{
name = top;
pos = (313,560);
}
);
layerId = "70D15AE9-D38C-43AF-B37D-5B18830B62EE";
shapes = (
{
closed = 1;
nodes = (
(581,232,l),
(612,451,o),
(478,576,o),
(326,576,cs),
(177,576,o),
(50,479,o),
(40,298,c),
(191,298,l),
(187,398,o),
(250,448,o),
(326,448,cs),
(414,448,o),
(447,379,o),
(438,321,c),
(484,348,l),
(191,348,l),
(191,232,l)
);
},
{
closed = 1;
nodes = (
(462,-16,o),
(559,63,o),
(583,178,c),
(432,178,l),
(417,140,o),
(380,112,o),
(326,112,cs),
(241,112,o),
(202,162,o),
(191,232,c),
(43,232,l),
(62,84,o),
(169,-16,o),
(326,-16,cs)
);
}
);
width = 625;
},
{
anchors = (
{
name = bottom;
pos = (316,0);
},
{
name = ogonek;
pos = (429,0);
},
{
name = top;
pos = (316,560);
}
);
layerId = "B0101270-E9E4-4119-BDB6-6DA172BA76B6";
shapes = (
{
closed = 1;
nodes = (
(586,255,l),
(600,458,o),
(482,576,o),
(330,576,cs),
(171,576,o),
(63,473,o),
(46,321,c),
(122,321,l),
(136,432,o),
(211,508,o),
(330,508,cs),
(447,508,o),
(518,417,o),
(519,285,c),
(562,321,l),
(122,321,l),
(122,255,l)
);
},
{
closed = 1;
nodes = (
(466,-16,o),
(555,62,o),
(584,177,c),
(507,177,l),
(485,107,o),
(432,52,o),
(330,52,cs),
(205,52,o),
(131,135,o),
(122,255,c),
(45,255,l),
(55,95,o),
(165,-16,o),
(330,-16,cs)
);
}
);
width = 632;
}
);
metricRight = "=e";
}
{
color = 6;
glyphname = eight.tf;
layers = (
{
layerId = "70D15AE9-D38C-43AF-B37D-5B18830B62EE";
shapes = (
{
closed = 1;
nodes = (
(171,716,o),
(68,622,o),
(68,510,cs),
(68,441,o),
(100,380,o),
(176,352,c),
(95,324,o),
(63,260,o),
(63,190,cs),
(63,78,o),
(161,-16,o),
(330,-16,cs),
(499,-16,o),
(597,78,o),
(597,190,cs),
(597,260,o),
(565,324,o),
(484,352,c),
(560,380,o),
(592,441,o),
(592,510,cs),
(592,622,o),
(489,716,o),
(330,716,cs)
);
},
{
closed = 1;
nodes = (
(214,258,o),
(245,297,o),
(330,297,cs),
(415,297,o),
(446,258,o),
(446,205,cs),
(446,162,o),
(419,116,o),
(330,116,cs),
(241,116,o),
(214,163,o),
(214,205,cs)
);
},
{
closed = 1;
nodes = (
(219,549,o),
(260,584,o),
(330,584,c),
(400,584,o),
(441,549,o),
(441,505,cs),
(441,452,o),
(407,413,o),
(330,413,cs),
(252,413,o),
(219,452,o),
(219,505,cs)
);
}
);
width = 660;
},
{
layerId = "B0101270-E9E4-4119-BDB6-6DA172BA76B6";
shapes = (
{
closed = 1;
nodes = (
(171,716,o),
(68,622,o),
(68,510,cs),
(68,441,o),
(100,380,o),
(176,352,c),
(95,324,o),
(63,260,o),
(63,190,cs),
(63,78,o),
(161,-16,o),
(330,-16,cs),
(499,-16,o),
(597,78,o),
(597,190,cs),
(597,260,o),
(565,324,o),
(484,352,c),
(560,380,o),
(592,441,o),
(592,510,cs),
(592,622,o),
(489,716,o),
(330,716,cs)
);
},
{
closed = 1;
nodes = (
(141,278,o),
(205,323,o),
(330,323,cs),
(455,323,o),
(509,278,o),
(509,195,cs),
(509,110,o),
(450,56,o),
(330,56,cs),
(210,56,o),
(141,110,o),
(141,195,cs)
);
},
{
closed = 1;
nodes = (
(146,589,o),
(220,644,o),
(330,644,c),
(440,644,o),
(514,589,o),
(514,515,cs),
(514,432,o),
(447,387,o),
(330,387,cs),
(212,387,o),
(146,432,o),
(146,515,cs)
);
}
);
width = 660;
}
);
}
{
color = 6;
glyphname = f.ss01;
kernLeft = KO_f;
kernRight = KO_f;
layers = (
{
anchors = (
{
name = bottom;
pos = (210,0);
},
{
name = top;
pos = (210,750);
}
);
layerId = "70D15AE9-D38C-43AF-B37D-5B18830B62EE";
shapes = (
{
closed = 1;
nodes = (
(99,0,l),
(242,0,l),
(242,628,l),
(350,628,l),
(350,750,l),
(99,750,l)
);
},
{
closed = 1;
nodes = (
(35,438,l),
(350,438,l),
(350,560,l),
(35,560,l)
);
}
);
width = 395;
},
{
anchors = (
{
name = bottom;
pos = (205,0);
},
{
name = top;
pos = (205,750);
}
);
layerId = "B0101270-E9E4-4119-BDB6-6DA172BA76B6";
shapes = (
{
closed = 1;
nodes = (
(104,0,l),
(177,0,l),
(177,688,l),
(351,688,l),
(351,750,l),
(104,750,l)
);
},
{
closed = 1;
nodes = (
(40,498,l),
(327,498,l),
(327,560,l),
(40,560,l)
);
}
);
width = 401;
}
);
metricLeft = "=f";
metricRight = "=f";
}
{
color = 6;
glyphname = five.tf;
layers = (
{
layerId = "70D15AE9-D38C-43AF-B37D-5B18830B62EE";
shapes = (
{
closed = 1;
nodes = (
(209,470,o),
(133,344,o),
(118,287,c),
(204,287,l),
(230,317,o),
(282,340,o),
(341,340,cs),
(418,340,o),
(453,295,o),
(453,230,cs),
(453,172,o),
(418,116,o),
(340,116,cs),
(261,116,o),
(215,156,o),
(209,222,c),
(57,222,l),
(57,81,o),
(185,-16,o),
(335,-16,cs),
(505,-16,o),
(604,90,o),
(604,227,cs),
(604,371,o),
(518,470,o),
(341,470,c)
);
},
{
closed = 1;
nodes = (
(199,287,l),
(277,700,l),
(132,700,l),
(57,287,l)
);
},
{
closed = 1;
nodes = (
(170,574,l),
(547,574,l),
(547,700,l),
(170,700,l)
);
}
);
width = 660;
},
{
layerId = "B0101270-E9E4-4119-BDB6-6DA172BA76B6";
shapes = (
{
closed = 1;
nodes = (
(192,470,o),
(121,344,o),
(106,287,c),
(152,287,l),
(176,357,o),
(240,400,o),
(329,400,cs),
(446,400,o),
(514,335,o),
(514,230,cs),
(514,132,o),
(451,46,o),
(333,46,cs),
(204,46,o),
(144,136,o),
(138,222,c),
(65,222,l),
(65,81,o),
(186,-16,o),
(328,-16,cs),
(498,-16,o),
(592,90,o),
(592,227,cs),
(592,364,o),
(505,470,o),
(329,470,c)
);
},
{
closed = 1;
nodes = (
(146,287,l),
(224,700,l),
(150,700,l),
(75,287,l)
);
},
{
closed = 1;
nodes = (
(158,634,l),
(525,634,l),
(525,700,l),
(158,700,l)
);
}
);
width = 660;
}
);
}
{
color = 6;
glyphname = four.tf;
layers = (
{
layerId = "70D15AE9-D38C-43AF-B37D-5B18830B62EE";
shapes = (
{
closed = 1;
nodes = (
(372,0,l),
(515,0,l),
(515,700,l),
(372,700,l)
);
},
{
closed = 1;
nodes = (
(40,156,l),
(621,156,l),
(621,282,l),
(40,282,l)
);
},
{
closed = 1;
nodes = (
(40,282,l),
(40,156,l),
(108,156,l),
(497,700,l),
(343,700,l)
);
}
);
width = 660;
},
{
layerId = "B0101270-E9E4-4119-BDB6-6DA172BA76B6";
shapes = (
{
closed = 1;
nodes = (
(412,0,l),
(485,0,l),
(485,700,l),
(412,700,l)
);
},
{
closed = 1;
nodes = (
(80,176,l),
(621,176,l),
(621,242,l),
(80,242,l)
);
},
{
closed = 1;
nodes = (
(35,230,l),
(35,176,l),
(82,176,l),
(461,700,l),
(382,700,l)
);
}
);
width = 660;
}
);
}
{
color = 6;
glyphname = i.ss01;
kernLeft = KO_i.ss01;
kernRight = KO_i;
layers = (
{
anchors = (
{
name = bottom;
pos = (157,0);
}
);
layerId = "70D15AE9-D38C-43AF-B37D-5B18830B62EE";
shapes = (
{
closed = 1;
nodes = (
(103,0,l),
(246,0,l),
(246,560,l),
(103,560,l)
);
},
{
closed = 1;
nodes = (
(98,607,l),
(251,642,l),
(216,795,l),
(63,760,l)
);
}
);
width = 314;
},
{
anchors = (
{
name = bottom;
pos = (121,0);
}
);
layerId = "B0101270-E9E4-4119-BDB6-6DA172BA76B6";
shapes = (
{
closed = 1;
nodes = (
(93,0,l),
(166,0,l),
(166,560,l),
(93,560,l)
);
},
{
closed = 1;
nodes = (
(87,659,l),
(174,677,l),
(155,768,l),
(68,750,l)
);
}
);
width = 242;
}
);
metricLeft = "=i";
metricRight = "=i";
}
{
color = 6;
glyphname = nine.tf;
layers = (
{
layerId = "70D15AE9-D38C-43AF-B37D-5B18830B62EE";
shapes = (
{
closed = 1;
nodes = (
(74,198,l),
(98,70,o),
(181,-16,o),
(322,-16,cs),
(505,-16,o),
(604,123,o),
(604,369,cs),
(604,633,o),
(476,716,o),
(326,716,cs),
(156,716,o),
(57,610,o),
(57,473,cs),
(57,336,o),
(156,230,o),
(320,230,cs),
(404,230,o),
(471,266,o),
(502,320,c),
(464,327,l),
(460,172,o),
(391,116,o),
(327,116,cs),
(258,116,o),
(238,151,o),
(229,198,c)
);
},
{
closed = 1;
nodes = (
(442,400,o),
(396,360,o),
(325,360,cs),
(254,360,o),
(208,400,o),
(208,470,cs),
(208,536,o),
(254,584,o),
(326,584,cs),
(396,584,o),
(442,536,o),
(442,468,cs)
);
}
);
width = 660;
},
{
layerId = "B0101270-E9E4-4119-BDB6-6DA172BA76B6";
shapes = (
{
closed = 1;
nodes = (
(73,198,l),
(97,70,o),
(180,-16,o),
(321,-16,cs),
(504,-16,o),
(603,123,o),
(603,369,cs),
(603,633,o),
(475,716,o),
(325,716,cs),
(155,716,o),
(56,610,o),
(56,473,cs),
(56,336,o),
(155,230,o),
(319,230,cs),
(439,230,o),
(529,310,o),
(553,380,c),
(527,378,l),
(527,151,o),
(449,56,o),
(326,56,cs),
(204,56,o),
(167,151,o),
(158,198,c)
);
},
{
closed = 1;
nodes = (
(511,372,o),
(447,300,o),
(323,300,cs),
(199,300,o),
(134,372,o),
(134,470,cs),
(134,568,o),
(199,644,o),
(324,644,cs),
(447,644,o),
(511,568,o),
(511,468,cs)
);
}
);
width = 660;
}
);
}
{
color = 6;
glyphname = one.tf;
layers = (
{
layerId = "70D15AE9-D38C-43AF-B37D-5B18830B62EE";
shapes = (
{
closed = 1;
nodes = (
(258,0,l),
(403,0,l),
(403,700,l),
(258,700,l)
);
},
{
closed = 1;
nodes = (
(50,574,l),
(285,574,l),
(285,700,l),
(50,700,l)
);
},
{
closed = 1;
nodes = (
(50,0,l),
(285,0,l),
(285,126,l),
(50,126,l)
);
},
{
closed = 1;
nodes = (
(376,0,l),
(611,0,l),
(611,126,l),
(376,126,l)
);
}
);
width = 660;
},
{
layerId = "B0101270-E9E4-4119-BDB6-6DA172BA76B6";
shapes = (
{
closed = 1;
nodes = (
(298,0,l),
(373,0,l),
(373,700,l),
(298,700,l)
);
},
{
closed = 1;
nodes = (
(70,634,l),
(325,634,l),
(325,700,l),
(70,700,l)
);
},
{
closed = 1;
nodes = (
(70,0,l),
(325,0,l),
(325,66,l),
(70,66,l)
);
},
{
closed = 1;
nodes = (
(346,0,l),
(601,0,l),
(601,66,l),
(346,66,l)
);
}
);
width = 660;
}
);
}
{
color = 6;
glyphname = periodcentered.loclCAT.case;
kernLeft = KO_periodcentered;
kernRight = KO_period;
layers = (
{
layerId = "70D15AE9-D38C-43AF-B37D-5B18830B62EE";
shapes = (
{
closed = 1;
nodes = (
(45,203,l),
(198,203,l),
(198,356,l),
(45,356,l)
);
}
);
width = 243;
},
{
layerId = "B0101270-E9E4-4119-BDB6-6DA172BA76B6";
shapes = (
{
closed = 1;
nodes = (
(50,233,l),
(139,233,l),
(139,326,l),
(50,326,l)
);
}
);
width = 189;
}
);
}
{
color = 6;
glyphname = seven.ss01;
kernLeft = KO_seven.ss01;
kernRight = KO_seven.ss01;
layers = (
{
layerId = "70D15AE9-D38C-43AF-B37D-5B18830B62EE";
shapes = (
{
closed = 1;
nodes = (
(328,0,l),
(328,314,o),
(402,489,o),
(520,601,c),
(520,634,l),
(393,634,l),
(393,700,l),
(35,700,l),
(35,574,l),
(313,574,l),
(222,428,o),
(176,227,o),
(176,0,c)
);
}
);
width = 555;
},
{
layerId = "B0101270-E9E4-4119-BDB6-6DA172BA76B6";
shapes = (
{
closed = 1;
nodes = (
(293,0,l),
(293,314,o),
(387,519,o),
(505,631,c),
(505,634,l),
(416,634,l),
(416,700,l),
(40,700,l),
(40,634,l),
(416,634,l),
(296,487,o),
(216,260,o),
(216,0,c)
);
}
);
width = 545;
}
);
metricLeft = "=seven";
metricRight = "=seven";
}
{
color = 6;
glyphname = tildecomb.narrow;
layers = (
{
anchors = (
{
name = _top;
pos = (196,560);
},
{
name = top;
pos = (196,759);
}
);
layerId = "70D15AE9-D38C-43AF-B37D-5B18830B62EE";
shapes = (
{
attr = {
fillColor = (217,217,217,255);
};
closed = 1;
nodes = (
(193,672,o),
(207,621,o),
(266,621,c),
(310,621,o),
(356,665,o),
(356,762,c),
(260,762,l),
(260,739,o),
(257,722,o),
(239,722,c),
(200,722,o),
(186,771,o),
(126,771,c),
(80,771,o),
(35,728,o),
(35,632,c),
(131,632,l),
(131,654,o),
(136,672,o),
(154,672,c)
);
}
);
width = 391;
},
{
anchors = (
{
name = _top;
pos = (144,560);
},
{
name = top;
pos = (144,716);
}
);
layerId = "B0101270-E9E4-4119-BDB6-6DA172BA76B6";
shapes = (
{
attr = {
fillColor = (208,255);
};
closed = 1;
nodes = (
(131,682,o),
(155,643,o),
(189,643,cs),
(218,643,o),
(247,666,o),
(247,735,c),
(200,735,l),
(200,720,o),
(197,704,o),
(180,704,cs),
(158,704,o),
(144,741,o),
(103,741,cs),
(71,741,o),
(40,720,o),
(40,651,c),
(88,651,l),
(88,666,o),
(93,682,o),
(109,682,cs)
);
}
);
width = 287;
}
);
}
{
color = 6;
glyphname = two.ss01;
kernLeft = KO_two.ss01;
kernRight = KO_two.ss01;
layers = (
{
layerId = "70D15AE9-D38C-43AF-B37D-5B18830B62EE";
shapes = (
{
closed = 1;
nodes = (
(568,0,l),
(568,126,l),
(231,126,l),
(317,285,o),
(566,276,o),
(566,481,cs),
(566,613,o),
(470,716,o),
(300,716,cs),
(150,716,o),
(35,619,o),
(35,478,c),
(187,478,l),
(193,544,o),
(226,584,o),
(305,584,cs),
(375,584,o),
(415,548,o),
(415,481,cs),
(415,339,o),
(84,350,o),
(35,68,c),
(189,68,l),
(189,0,l)
);
}
);
width = 623;
},
{
layerId = "B0101270-E9E4-4119-BDB6-6DA172BA76B6";
shapes = (
{
closed = 1;
nodes = (
(565,0,l),
(565,68,l),
(134,68,l),
(191,299,o),
(562,255,o),
(562,508,cs),
(562,613,o),
(481,716,o),
(311,716,cs),
(161,716,o),
(51,619,o),
(51,478,c),
(128,478,l),
(134,574,o),
(191,644,o),
(316,644,cs),
(417,644,o),
(484,588,o),
(484,504,cs),
(484,311,o),
(101,344,o),
(45,68,c),
(134,68,l),
(134,0,l)
);
}
);
width = 610;
}
);
metricLeft = "=two";
metricRight = "=two";
}
{
color = 6;
glyphname = two.tf;
layers = (
{
layerId = "70D15AE9-D38C-43AF-B37D-5B18830B62EE";
shapes = (
{
closed = 1;
nodes = (
(234,0,l),
(234,299,o),
(598,233,o),
(598,481,cs),
(598,613,o),
(502,716,o),
(332,716,cs),
(182,716,o),
(67,619,o),
(67,478,c),
(219,478,l),
(225,544,o),
(258,584,o),
(337,584,cs),
(407,584,o),
(447,548,o),
(447,481,cs),
(447,329,o),
(66,350,o),
(61,0,c)
);
},
{
closed = 1;
nodes = (
(61,0,l),
(600,0,l),
(600,126,l),
(144,126,l)
);
}
);
width = 660;
},
{
background = {
shapes = (
{
closed = 1;
nodes = (
(147,0,l),
(147,239,o),
(586,233,o),
(586,481,cs),
(586,613,o),
(500,716,o),
(330,716,cs),
(180,716,o),
(75,619,o),
(75,478,c),
(152,478,l),
(158,574,o),
(210,644,o),
(335,644,cs),
(436,644,o),
(508,588,o),
(508,481,cs),
(508,292,o),
(64,280,o),
(59,0,c)
);
},
{
closed = 1;
nodes = (
(59,0,l),
(588,0,l),
(588,68,l),
(142,68,l)
);
}
);
};
layerId = "B0101270-E9E4-4119-BDB6-6DA172BA76B6";
shapes = (
{
closed = 1;
nodes = (
(155,0,l),
(155,309,o),
(586,233,o),
(586,508,cs),
(586,613,o),
(505,716,o),
(335,716,cs),
(185,716,o),
(75,619,o),
(75,478,c),
(152,478,l),
(158,574,o),
(215,644,o),
(340,644,cs),
(441,644,o),
(508,588,o),
(508,504,cs),
(508,297,o),
(72,350,o),
(67,0,c)
);
},
{
closed = 1;
nodes = (
(67,0,l),
(588,0,l),
(588,68,l),
(150,68,l)
);
}
);
width = 660;
}
);
}
{
color = 6;
glyphname = zero.tf;
layers = (
{
layerId = "70D15AE9-D38C-43AF-B37D-5B18830B62EE";
shapes = (
{
closed = 1;
nodes = (
(533,-16,o),
(626,148,o),
(626,351,cs),
(626,552,o),
(533,716,o),
(331,716,cs),
(128,716,o),
(35,552,o),
(35,351,cs),
(35,148,o),
(128,-16,o),
(331,-16,cs)
);
},
{
closed = 1;
nodes = (
(224,116,o),
(186,231,o),
(186,351,cs),
(186,469,o),
(224,584,o),
(331,584,cs),
(437,584,o),
(475,469,o),
(475,351,cs),
(475,231,o),
(437,116,o),
(331,116,cs)
);
}
);
width = 660;
},
{
layerId = "B0101270-E9E4-4119-BDB6-6DA172BA76B6";
shapes = (
{
closed = 1;
nodes = (
(532,-16,o),
(625,148,o),
(625,351,cs),
(625,552,o),
(532,716,o),
(330,716,cs),
(127,716,o),
(34,552,o),
(34,351,cs),
(34,148,o),
(127,-16,o),
(330,-16,cs)
);
},
{
closed = 1;
nodes = (
(193,56,o),
(112,181,o),
(112,351,cs),
(112,519,o),
(193,644,o),
(330,644,cs),
(466,644,o),
(547,519,o),
(547,351,cs),
(547,181,o),
(466,56,o),
(330,56,cs)
);
}
);
width = 660;
}
);
}
